<svg width="213" height="49" viewBox="0 0 213 49" fill="none" xmlns="http://www.w3.org/2000/svg"><rect x=".11" y=".935" width="184.301" height="18.936" rx="2.313" fill="#000"/><rect x=".11" y="15.908" width="189.791" height="18.495" rx="2.313" fill="#000"/><rect x=".11" y="29.999" width="101.953" height="18.936" rx="2.313" fill="#000"/><path d="M4.992 14.631V5.427h3.12v9.204h-3.12zm7.671-4.602c0-2.95 2.223-4.862 5.005-4.862 1.417 0 2.756.494 3.601 1.274L19.371 8.73c-.338-.455-.884-.689-1.52-.689-1.028 0-1.86.767-1.86 1.99 0 1.195.858 1.962 1.86 1.962.701 0 1.234-.338 1.52-.74l1.898 2.274c-.819.82-2.067 1.365-3.6 1.365-2.783 0-5.006-1.963-5.006-4.862zm8.25 4.602l3.627-9.204h3.289l3.588 9.204H28.05l-.481-1.352h-2.925l-.455 1.352h-3.276zm5.967-3.718l-.741-2.275-.754 2.275h1.495zm5.192 3.718V5.427h3.08l2.627 4.667h.052l-.13-4.667h2.938v9.204h-3.16l-2.547-4.394h-.052l.13 4.394h-2.938zm13.117-4.602c0-2.95 2.223-4.862 5.005-4.862 1.417 0 2.756.494 3.6 1.274L51.898 8.73c-.338-.455-.884-.689-1.521-.689-1.027 0-1.86.767-1.86 1.99 0 1.195.859 1.962 1.86 1.962.702 0 1.235-.338 1.52-.74l1.899 2.274c-.82.82-2.067 1.365-3.601 1.365-2.782 0-5.005-1.963-5.005-4.862zm9.468 4.602V5.427h3.965c1.82 0 3.718.65 3.718 2.99 0 1.118-.586 2.015-1.613 2.483l2.34 3.731h-3.562l-1.768-3.289h-.09v3.29h-2.99zm2.964-6.799v1.482h.61c.43 0 1.08-.104 1.08-.767 0-.65-.56-.715-.95-.715h-.74zm6.316 6.8V5.426h6.33v2.574H66.85v.793h3.21V11.2h-3.21v.858h3.64v2.574h-6.552zm6.767 0l3.627-9.205h3.289l3.588 9.204H77.84l-.481-1.352h-2.925l-.455 1.352h-3.276zm5.967-3.719l-.741-2.275-.754 2.275h1.495zm9.006-2.873v6.591h-3.094v-6.59h-2.262V5.426h7.618V8.04h-2.262zm3.206 6.591V5.427h6.331v2.574h-3.419v.793h3.211V11.2h-3.21v.858h3.64v2.574h-6.553zm9.789 0l3.627-9.204h3.289l3.588 9.204h-3.367l-.481-1.352h-2.925l-.455 1.352h-3.276zm5.967-3.718l-.741-2.275-.754 2.275h1.495zm5.191 3.718V5.427h3.081l2.626 4.667h.052l-.13-4.667h2.938v9.204h-3.159l-2.548-4.394h-.052l.13 4.394h-2.938zm-105.904 15l3.627-9.204h3.29l3.588 9.204h-3.367l-.482-1.352H7.657l-.455 1.352H3.926zm5.967-3.718l-.74-2.275-.755 2.275h1.495zm5.192 3.718v-9.204h3.081l2.626 4.667h.052l-.13-4.667h2.938v9.204h-3.159l-2.548-4.394h-.052l.13 4.394h-2.938zm13.975 0h-3.692v-9.204H28.8c2.9 0 5.512 1.027 5.512 4.55 0 3.237-2.522 4.654-5.252 4.654zm-.026-6.578h-.689v3.926h.572c1.443 0 2.262-.598 2.262-2.028 0-1.183-.845-1.898-2.145-1.898zm49.464 6.578v-9.204h3.12v9.204h-3.12zm9.426-6.59v6.59H84.83v-6.59h-2.262v-2.614h7.618v2.613h-2.262zm5.723 1.936c0-2.95 2.197-4.81 5.109-4.81s5.122 1.86 5.122 4.81c0 2.951-2.21 4.914-5.122 4.914s-5.11-1.963-5.11-4.914zm3.289 0c0 1.196.767 2.054 1.82 2.054 1.04 0 1.82-.858 1.82-2.054 0-1.196-.78-1.976-1.82-1.976-1.053 0-1.82.78-1.82 1.976zm11.277-1.963v.975h2.808v2.522h-2.795v3.12h-3.042v-9.204h6.214v2.587h-3.185zm7.554 0v.975h2.808v2.522h-2.795v3.12h-3.042v-9.204h6.214v2.587h-3.185zm7.774 6.617v-9.204h6.331v2.574h-3.419v.793h3.211V26.2h-3.211v.858h3.64v2.574h-6.552zm6.767 0l3.627-9.204h3.289l3.588 9.204h-3.367l-.481-1.352h-2.925l-.455 1.352h-3.276zm5.967-3.718l-.741-2.275-.754 2.275h1.495zm8.208 3.978c-1.482 0-2.938-.559-3.874-1.39l1.885-2.055c.429.468 1.222.897 1.976.897.351 0 .689-.104.689-.429 0-.338-.325-.468-1.625-.897-1.248-.416-2.379-1.079-2.379-2.69 0-2.289 2.054-3.16 3.861-3.16 1.209 0 2.561.494 3.51 1.365l-1.924 1.963c-.416-.52-1.105-.793-1.586-.793-.455 0-.754.117-.754.416 0 .273.273.364.91.572 1.326.43 3.107 1.014 3.107 2.912 0 2.223-1.937 3.29-3.796 3.29zm5.008-.26v-9.204h3.12v9.204h-3.12zm4.836 0v-9.204h3.12v6.552h3.055v2.652h-6.175zm11.591-3.77v3.77h-3.094v-3.77l-3.471-5.434h3.731l1.456 2.704 1.391-2.704h3.64l-3.653 5.434zm2.771 2.301c0-.923.793-1.69 1.742-1.69.91 0 1.69.767 1.69 1.69 0 .95-.78 1.677-1.69 1.677-.949 0-1.742-.728-1.742-1.677zm4.316 0c0-.923.793-1.69 1.742-1.69.91 0 1.69.767 1.69 1.69 0 .95-.78 1.677-1.69 1.677-.949 0-1.742-.728-1.742-1.677zm4.329 0c0-.923.793-1.69 1.742-1.69.91 0 1.69.767 1.69 1.69 0 .95-.78 1.677-1.69 1.677-.949 0-1.742-.728-1.742-1.677zm-85.295 14c0-.923.793-1.69 1.742-1.69.91 0 1.69.767 1.69 1.69 0 .95-.78 1.677-1.69 1.677-.95 0-1.742-.728-1.742-1.677z" fill="#fff"/><path d="M123.364 14.631V5.427h3.12v9.204h-3.12zm4.836 0V5.427h3.081l2.626 4.667h.052l-.13-4.667h2.938v9.204h-3.159l-2.548-4.394h-.052l.13 4.394H128.2zm12.481 0l-3.263-9.204h3.497l1.521 5.694h.052l1.456-5.694h3.497l-3.328 9.204h-3.432zm6.845-4.654c0-2.95 2.197-4.81 5.109-4.81s5.122 1.86 5.122 4.81c0 2.951-2.21 4.914-5.122 4.914s-5.109-1.963-5.109-4.914zm3.289 0c0 1.196.767 2.054 1.82 2.054 1.04 0 1.82-.858 1.82-2.054 0-1.196-.78-1.976-1.82-1.976-1.053 0-1.82.78-1.82 1.976zm8.248 4.654V5.427h3.12v9.204h-3.12zm4.421-4.602c0-2.95 2.223-4.862 5.005-4.862 1.417 0 2.756.494 3.601 1.274l-1.898 2.288c-.338-.455-.884-.689-1.521-.689-1.027 0-1.859.767-1.859 1.99 0 1.195.858 1.962 1.859 1.962.702 0 1.235-.338 1.521-.74l1.898 2.274c-.819.82-2.067 1.365-3.601 1.365-2.782 0-5.005-1.963-5.005-4.862zm9.467 4.602V5.427h6.331v2.574h-3.419v.793h3.211V11.2h-3.211v.858h3.64v2.574h-6.552zM41.88 29.891c-1.482 0-2.938-.559-3.874-1.39l1.885-2.055c.429.468 1.222.897 1.976.897.35 0 .689-.104.689-.429 0-.338-.325-.468-1.625-.897-1.248-.416-2.38-1.079-2.38-2.69 0-2.289 2.055-3.16 3.862-3.16 1.209 0 2.56.494 3.51 1.365l-1.924 1.963c-.416-.52-1.105-.793-1.586-.793-.455 0-.754.117-.754.416 0 .273.273.364.91.572 1.326.43 3.107 1.014 3.107 2.912 0 2.223-1.937 3.29-3.796 3.29zm5.007-.26v-9.204h6.331v2.574h-3.419v.793h3.211V26.2h-3.211v.858h3.64v2.574h-6.552zm7.833 0v-9.204h3.081l2.626 4.667h.052l-.13-4.667h2.938v9.204h-3.159l-2.548-4.394h-.052l.13 4.394H54.72zm13.975 0h-3.692v-9.204h3.432c2.9 0 5.512 1.027 5.512 4.55 0 3.237-2.522 4.654-5.252 4.654zm-.026-6.578h-.689v3.926h.572c1.443 0 2.262-.598 2.262-2.028 0-1.183-.845-1.898-2.145-1.898zM10.61 43.631v-3.497H8.085v3.497H4.992v-9.204h3.081v3.12h2.522v-3.12h3.107v9.204h-3.094zm3.74 0l3.627-9.204h3.29l3.587 9.204h-3.367l-.48-1.352H18.08l-.455 1.352H14.35zm5.967-3.718l-.74-2.275-.755 2.275h1.495zm8.208 3.978c-1.482 0-2.938-.559-3.874-1.39l1.885-2.055c.43.468 1.222.897 1.976.897.351 0 .69-.104.69-.429 0-.338-.326-.468-1.626-.897-1.248-.416-2.379-1.079-2.379-2.69 0-2.289 2.054-3.16 3.861-3.16 1.21 0 2.561.494 3.51 1.365l-1.924 1.963c-.416-.52-1.105-.793-1.586-.793-.455 0-.754.117-.754.416 0 .273.273.364.91.572 1.326.43 3.107 1.014 3.107 2.912 0 2.223-1.937 3.29-3.796 3.29zm8.023 0c-1.481 0-2.938-.559-3.873-1.39l1.885-2.055c.428.468 1.222.897 1.976.897.35 0 .689-.104.689-.429 0-.338-.325-.468-1.625-.897-1.248-.416-2.38-1.079-2.38-2.69 0-2.289 2.054-3.16 3.861-3.16 1.21 0 2.562.494 3.51 1.365l-1.924 1.963c-.415-.52-1.104-.793-1.585-.793-.456 0-.755.117-.755.416 0 .273.273.364.91.572 1.327.43 3.108 1.014 3.108 2.912 0 2.223-1.938 3.29-3.797 3.29zm5.008-.26v-9.204h3.12v6.552h3.055v2.652h-6.175zm7.135 0v-9.204h6.33v2.574h-3.418v.793h3.21V40.2h-3.21v.858h3.64v2.574H48.69zm14.112-6.617v.975h2.808v2.522h-2.795v3.12h-3.042v-9.204h6.214v2.587h-3.185zm4.524 6.617v-9.204h3.965c1.82 0 3.718.65 3.718 2.99 0 1.118-.585 2.015-1.612 2.483l2.34 3.731h-3.562l-1.768-3.289h-.09v3.29h-2.99zm2.964-6.799v1.482h.611c.43 0 1.08-.104 1.08-.767 0-.65-.56-.715-.95-.715h-.74zm6.317 6.8v-9.205h6.33v2.574H79.52v.793h3.21V40.2h-3.21v.858h3.64v2.574h-6.552zm7.833 0v-9.205h6.33v2.574h-3.418v.793h3.21V40.2h-3.21v.858h3.64v2.574H84.44z" fill="#5BEF76"/></svg>