<svg width="123" height="8" viewBox="0 0 123 8" fill="none" xmlns="http://www.w3.org/2000/svg"><path d="M6.09 6.185H4.57l-.44-1.112H1.938l-.416 1.112H.034L2.41.521h1.328L6.09 6.185zM3.754 3.977L3.05 2.033l-.72 1.944h1.424zm5.252.024l1.6 2.184H8.982L7.678 4.273h-.024v1.912h-1.32V.137h1.32v3.68h.024L8.95 2.201h1.592l-1.536 1.8zm5.862 2.184h-1.32v-2.16c0-.448-.112-.84-.584-.84-.456 0-.712.376-.712.848v2.152H10.94V.137h1.312v2.568h.016c.176-.32.592-.616 1.144-.616 1.08 0 1.456.832 1.456 1.632v2.464zM17.125.93c0 .408-.336.72-.752.72a.735.735 0 01-.752-.72c0-.384.328-.72.752-.72.416 0 .752.32.752.72zm-.096 5.256h-1.312V2.201h1.312v3.984zm2.224 0h-1.328V.137h1.328v6.048zm7.942 0h-1.552l-2.28-3.704h-.024l.032 3.704h-1.328V.521h1.56l2.272 3.696h.024L25.867.521h1.328v5.664zm3.289-1.6V4.45h-.168c-.576 0-1.224.072-1.224.544 0 .304.304.408.568.408.528 0 .824-.32.824-.816zM28.74 3.457l-.664-.712c.464-.44 1.128-.672 1.776-.672 1.336 0 1.832.656 1.832 2.104v2.008h-1.2v-.424h-.024c-.2.328-.656.52-1.128.52-.632 0-1.448-.312-1.448-1.248 0-1.152 1.4-1.344 2.56-1.344v-.064c0-.392-.312-.576-.72-.576-.376 0-.744.184-.984.408zm7.699 2.728h-1.32V4.01c0-.44-.12-.84-.592-.84-.464 0-.704.4-.704.856v2.16h-1.32V2.201h1.272v.552h.016c.184-.352.64-.664 1.192-.664 1.072 0 1.456.832 1.456 1.632v2.464zm3.186-1.6V4.45h-.168c-.576 0-1.224.072-1.224.544 0 .304.304.408.568.408.528 0 .824-.32.824-.816zM37.88 3.457l-.664-.712c.464-.44 1.128-.672 1.776-.672 1.336 0 1.832.656 1.832 2.104v2.008h-1.2v-.424H39.6c-.2.328-.656.52-1.128.52-.632 0-1.448-.312-1.448-1.248 0-1.152 1.4-1.344 2.56-1.344v-.064c0-.392-.312-.576-.72-.576-.376 0-.744.184-.984.408zm5.267 1.448l-.776 2.272h-1.08l.6-2.272h1.256zm8.492.616v.664h-3.328c-1.728 0-2.944-1.144-2.944-2.904 0-1.704 1.256-2.904 2.952-2.904 1.68 0 2.928 1.2 2.928 2.904 0 1.008-.472 1.792-1.168 2.224v.016h1.56zm-5.416-2.24c0 1.24.816 2.208 2.088 2.208 1.248 0 2.088-.968 2.088-2.208 0-1.208-.8-2.208-2.08-2.208-1.272 0-2.096 1-2.096 2.208zm9.382 2.904h-.712a9.063 9.063 0 01-.032-.624h-.016c-.192.4-.688.728-1.24.728-.976 0-1.416-.696-1.416-1.544V2.393h.752V4.49c0 .624.168 1.168.864 1.168.6 0 1.016-.496 1.016-1.248V2.393h.752V5.37c0 .2.008.568.032.816zm1.872-3.792v3.792h-.752V2.393h.752zm.128-1.368c0 .272-.232.48-.504.48a.49.49 0 01-.496-.48c0-.272.224-.488.496-.488s.504.208.504.488zm4.222 1.888l-.544.44c-.16-.248-.512-.432-.872-.432-.784 0-1.24.64-1.24 1.368 0 .72.456 1.368 1.248 1.368.384 0 .712-.16.912-.416l.504.456c-.32.368-.808.592-1.416.592-1.168 0-2.04-.792-2.04-2 0-1.192.864-2 2.024-2 .536 0 1.112.216 1.424.624zM63.19.137v3.904h.025l1.591-1.648h1.008l-1.776 1.72 1.928 2.072h-1.04l-1.711-1.968h-.024v1.968h-.752V.137h.752zm3.331 6.048V.521h1.952c.856 0 1.776.352 1.776 1.432 0 .624-.4 1.072-.992 1.232v.016c.728.088 1.256.584 1.256 1.376 0 1.088-.944 1.608-2.128 1.608H66.52zm.792-5v1.728h1.032c.608 0 1.112-.264 1.112-.88 0-.608-.488-.848-1.24-.848h-.904zm0 2.4v1.928h.992c.672 0 1.408-.208 1.408-.976 0-.664-.472-.952-1.336-.952h-1.064zm7.981.696c0 1.168-.888 2.008-2.048 2.008-1.16 0-2.04-.84-2.04-2.008 0-1.168.88-1.992 2.04-1.992 1.16 0 2.048.824 2.048 1.992zm-.784 0c0-.72-.448-1.368-1.264-1.368-.808 0-1.264.648-1.264 1.368 0 .72.456 1.376 1.264 1.376.816 0 1.264-.656 1.264-1.376zm5.507 0c0 1.168-.888 2.008-2.048 2.008-1.16 0-2.04-.84-2.04-2.008 0-1.168.88-1.992 2.04-1.992 1.16 0 2.048.824 2.048 1.992zm-.784 0c0-.72-.448-1.368-1.264-1.368-.808 0-1.264.648-1.264 1.368 0 .72.456 1.376 1.264 1.376.816 0 1.264-.656 1.264-1.376zM81.667.137v3.904h.024l1.592-1.648h1.008l-1.776 1.72 1.928 2.072h-1.04L81.69 4.217h-.024v1.968h-.752V.137h.752zm5.812 2.776l-.52.44a1.035 1.035 0 00-.88-.472c-.344 0-.704.136-.704.496 0 .32.288.44.864.568.72.16 1.272.456 1.272 1.12 0 .896-.744 1.224-1.512 1.224-.576 0-1.168-.224-1.528-.68l.536-.456c.2.296.584.528 1.008.528.376 0 .752-.136.752-.552 0-.352-.344-.48-.992-.632-.504-.12-1.104-.336-1.104-1.048 0-.816.712-1.16 1.432-1.16.536 0 1.104.216 1.376.624zm5.866 0l-.544.44c-.16-.248-.512-.432-.872-.432-.784 0-1.24.64-1.24 1.368 0 .72.456 1.368 1.248 1.368.384 0 .712-.16.912-.416l.504.456c-.32.368-.808.592-1.416.592-1.168 0-2.04-.792-2.04-2 0-1.192.864-2 2.024-2 .536 0 1.112.216 1.424.624zm3.977 3.272h-.712a9.063 9.063 0 01-.032-.624h-.016c-.192.4-.688.728-1.24.728-.976 0-1.416-.696-1.416-1.544V2.393h.752V4.49c0 .624.168 1.168.864 1.168.6 0 1.016-.496 1.016-1.248V2.393h.752V5.37c0 .2.008.568.032.816zm3.681-3.272l-.52.44a1.035 1.035 0 00-.88-.472c-.344 0-.704.136-.704.496 0 .32.288.44.864.568.72.16 1.272.456 1.272 1.12 0 .896-.744 1.224-1.512 1.224-.576 0-1.168-.224-1.528-.68l.536-.456c.2.296.584.528 1.008.528.376 0 .752-.136.752-.552 0-.352-.344-.48-.992-.632-.504-.12-1.104-.336-1.104-1.048 0-.816.712-1.16 1.432-1.16.536 0 1.104.216 1.376.624zm2.682-.52v.616h-1.008v1.976c0 .456.16.64.536.64.136 0 .312-.032.44-.096l.024.616a1.95 1.95 0 01-.64.104c-.712 0-1.104-.4-1.104-1.184V3.01h-.728v-.616h.728V1.305h.744v1.088h1.008zm4.457 1.888c0 1.168-.888 2.008-2.048 2.008-1.16 0-2.04-.84-2.04-2.008 0-1.168.88-1.992 2.04-1.992 1.16 0 2.048.824 2.048 1.992zm-.784 0c0-.72-.448-1.368-1.264-1.368-.808 0-1.264.648-1.264 1.368 0 .72.456 1.376 1.264 1.376.816 0 1.264-.656 1.264-1.376zm2.403-1.264c.192-.4.632-.728 1.208-.728.504 0 .944.224 1.176.76a1.43 1.43 0 011.288-.76c.976 0 1.416.696 1.416 1.544v2.352h-.752V4.081c0-.616-.184-1.16-.84-1.16-.688 0-.96.624-.96 1.216v2.048h-.752V3.93c0-.592-.2-1.008-.8-1.008-.552 0-.968.496-.968 1.248v2.016h-.752V3.21c0-.2-.008-.568-.032-.816h.712c.016.192.032.464.032.624h.024zm6.718.936h2.256c-.016-.6-.368-1.072-1.064-1.072-.648 0-1.144.48-1.192 1.072zm3.016.304c0 .08 0 .168-.008.256h-3.008c.024.648.568 1.152 1.232 1.152.512 0 .888-.256 1.104-.576l.528.424c-.408.528-.96.776-1.632.776-1.152 0-2-.8-2-1.992 0-1.184.848-2.008 1.96-2.008 1.12 0 1.824.76 1.824 1.968zm.89-1.048c0-.2-.008-.568-.032-.816h.712c.016.192.032.48.032.64h.024a1.285 1.285 0 011.456-.712l-.032.696a1.504 1.504 0 00-.344-.04c-.72 0-1.064.584-1.064 1.216v1.992h-.752V3.21z" fill="#fff"/></svg>