<svg width="122" height="32" viewBox="0 0 122 32" fill="none" xmlns="http://www.w3.org/2000/svg"><g clip-path="url(#clip0_325_131495)"><path d="M14.747 28.409c7.624 0 13.805-6.189 13.805-13.823S22.372.763 14.747.763C7.123.763.942 6.952.942 14.586s6.18 13.823 13.805 13.823z" fill="#2CA01C"/><path d="M10.145 9.21a5.372 5.372 0 00-5.368 5.376 5.37 5.37 0 005.368 5.376h.767v-1.997h-.767a3.379 3.379 0 010-6.758h1.844v10.444c0 1.103.893 1.997 1.994 1.997V9.21h-3.838zM19.352 19.962a5.372 5.372 0 005.368-5.376 5.37 5.37 0 00-5.368-5.375h-.767v1.996h.767a3.379 3.379 0 010 6.758h-1.844V7.521a1.995 1.995 0 00-1.994-1.997v14.438h3.838z" fill="#fff"/><path d="M41.66 31.763h-2.135v-5.415h-.037c-.552.854-1.638 1.388-2.828 1.388-2.599 0-4.2-2.067-4.2-4.561 0-2.532 1.709-4.491 4.145-4.491 1.564 0 2.527.764 2.954 1.443h.052v-1.194h2.046v12.83h.003zm-4.57-5.809c1.564 0 2.509-1.406 2.509-2.743 0-1.336-.942-2.78-2.51-2.78-1.653 0-2.454 1.407-2.454 2.744-.003 1.336.798 2.78 2.454 2.78zM51.25 27.487h-2.028v-1.373h-.037c-.374.854-1.386 1.622-2.65 1.622-2.224 0-3.15-1.71-3.15-3.456v-5.344h2.134v4.74c0 1.016.23 2.279 1.602 2.279 1.353 0 1.994-1.177 1.994-2.316v-4.703h2.135v8.551zM53.391 18.748h2.135V27.3h-2.135v-8.552zM63.515 21.304c-.338-.482-1.068-.839-1.761-.839-1.565 0-2.35 1.407-2.35 2.743 0 1.337.8 2.744 2.42 2.744.66 0 1.387-.268 1.798-.765l1.335 1.354c-.712.765-1.887 1.195-3.151 1.195-2.528 0-4.627-1.674-4.627-4.524 0-2.78 2.066-4.525 4.575-4.525 1.245 0 2.543.497 3.22 1.336l-1.46 1.28zM66.024 14.018h2.135v8.515h.052l3.24-3.6h2.74l-3.7 3.867 3.932 4.684h-2.828l-3.38-4.383h-.053v4.383h-2.135V14.018h-.003zM77.534 14.018v6.005h.052c.445-.553 1.298-1.336 2.866-1.336 2.438 0 4.144 1.96 4.144 4.49 0 2.495-1.601 4.562-4.2 4.562-1.193 0-2.35-.553-2.935-1.533h-.037v1.284h-2.028V14.018h2.138zm2.439 6.413c-1.565 0-2.51 1.444-2.51 2.78 0 1.337.942 2.744 2.51 2.744 1.654 0 2.454-1.444 2.454-2.78 0-1.337-.8-2.744-2.454-2.744zM90.167 18.687c2.58 0 4.645 1.8 4.645 4.49 0 2.692-2.065 4.562-4.645 4.562-2.58 0-4.645-1.87-4.645-4.561s2.065-4.491 4.645-4.491zm0 7.267c1.69 0 2.472-1.443 2.472-2.78 0-1.336-.782-2.742-2.472-2.742s-2.473 1.406-2.473 2.743c0 1.336.782 2.78 2.473 2.78zM100.382 18.687c2.58 0 4.645 1.8 4.645 4.49 0 2.692-2.065 4.562-4.645 4.562-2.58 0-4.644-1.87-4.644-4.561s2.064-4.491 4.644-4.491zm0 7.267c1.691 0 2.473-1.443 2.473-2.78 0-1.336-.782-2.742-2.473-2.742-1.69 0-2.472 1.406-2.472 2.743-.003 1.336.782 2.78 2.472 2.78zM106.325 14.018h2.135v8.515h.052l3.24-3.6h2.739l-3.699 3.867 3.932 4.684h-2.828l-3.381-4.383h-.052v4.383h-2.135V14.018h-.003zM120.55 21.215a2.426 2.426 0 00-1.868-.928c-.675 0-1.372.249-1.372.928 0 .66.66.838 1.85 1.121 1.264.304 2.758.872 2.758 2.547 0 2.085-1.691 2.85-3.558 2.85-1.317 0-2.688-.498-3.507-1.407l1.405-1.318a2.784 2.784 0 002.187 1.07c.623 0 1.372-.25 1.372-1.017 0-.713-.66-.928-1.957-1.23-1.265-.303-2.528-.82-2.528-2.423 0-1.907 1.708-2.724 3.399-2.724 1.227 0 2.509.427 3.202 1.299l-1.383 1.232zM55.855 7.26c0 2.169 1.733 3.754 3.935 3.754 2.203 0 3.94-1.582 3.94-3.754V2.28h-2.136v4.725c0 1.17-.782 1.954-1.81 1.954-1.03 0-1.81-.784-1.81-1.954V2.281h-2.132l.013 4.979zM69.432 4.28h2.547v6.562h2.132V4.28h2.543v-2h-7.222v2zM68.052 2.28H65.92v8.562h2.132V2.28zM47.24 4.28h2.546v6.562h2.133V4.28h2.543v-2H47.24v2zM36.052 2.28H33.92v8.562h2.132V2.28zM46.117 5.862c0-2.168-1.736-3.753-3.938-3.753-2.203 0-3.94 1.582-3.94 3.753v4.98h2.133V6.117c0-1.17.782-1.953 1.81-1.953 1.027 0 1.81.783 1.81 1.953v4.725h2.132l-.007-4.98z" fill="#000"/></g><defs><clipPath id="clip0_325_131495"><path fill="#fff" transform="translate(.942 .763)" d="M0 0h121v31H0z"/></clipPath></defs></svg>