<svg width="77" height="21" viewBox="0 0 77 21" fill="none" xmlns="http://www.w3.org/2000/svg"><g clip-path="url(#clip0_325_131469)"><path d="M9.657 18.6c4.79 0 8.671-3.994 8.671-8.919 0-4.925-3.882-8.918-8.67-8.918C4.867.763.986 4.756.986 9.681c0 4.925 3.882 8.918 8.67 8.918z" fill="#2CA01C"/><path d="M6.768 6.212c-1.863 0-3.372 1.553-3.372 3.468 0 1.916 1.509 3.468 3.372 3.468h.482V11.86h-.482c-1.17 0-2.12-.977-2.12-2.18 0-1.203.95-2.18 2.12-2.18h1.158v6.738c0 .711.56 1.288 1.252 1.288V6.212h-2.41zM12.549 13.15c1.863 0 3.371-1.553 3.371-3.468 0-1.916-1.508-3.468-3.371-3.468h-.482v1.288h.482c1.17 0 2.119.977 2.119 2.18 0 1.203-.95 2.18-2.12 2.18H11.39V5.124c0-.711-.56-1.288-1.252-1.288v9.314h2.41zM26.561 20.763h-1.34V17.27h-.024c-.347.55-1.029.895-1.776.895-1.632 0-2.638-1.333-2.638-2.943 0-1.633 1.073-2.897 2.603-2.897.983 0 1.588.494 1.855.932h.033v-.771h1.285v8.277h.002zm-2.87-3.747c.982 0 1.576-.908 1.576-1.77s-.592-1.793-1.577-1.793c-1.038 0-1.541.907-1.541 1.77-.002.861.5 1.793 1.541 1.793zM32.583 18.005H31.31v-.886h-.024c-.235.55-.87 1.046-1.664 1.046-1.397 0-1.98-1.104-1.98-2.23v-3.447h1.342v3.057c0 .656.144 1.47 1.006 1.47.85 0 1.252-.758 1.252-1.493v-3.034h1.341v5.517zM33.929 12.367h1.341v5.517H33.93v-5.517zM40.289 14.016c-.212-.311-.67-.54-1.106-.54-.983 0-1.476.907-1.476 1.769 0 .862.503 1.77 1.52 1.77.414 0 .87-.173 1.13-.494l.837.874c-.447.494-1.185.77-1.979.77-1.587 0-2.905-1.08-2.905-2.918 0-1.794 1.297-2.92 2.873-2.92.782 0 1.597.322 2.023.863l-.917.826zM41.865 9.315h1.341v5.493h.033l2.035-2.322h1.72L44.67 14.98l2.47 3.022h-1.776l-2.123-2.828h-.033v2.828h-1.34V9.315h-.003zM49.093 9.315v3.874h.033c.28-.356.815-.862 1.8-.862 1.532 0 2.603 1.265 2.603 2.898 0 1.609-1.006 2.943-2.638 2.943-.75 0-1.476-.357-1.844-.99h-.023v.829H47.75V9.315h1.343zm1.532 4.138c-.983 0-1.576.931-1.576 1.793 0 .862.592 1.77 1.576 1.77 1.039 0 1.541-.931 1.541-1.793 0-.863-.502-1.77-1.54-1.77zM57.029 12.328c1.62 0 2.917 1.161 2.917 2.897 0 1.736-1.297 2.943-2.917 2.943-1.62 0-2.917-1.207-2.917-2.943s1.296-2.897 2.917-2.897zm0 4.689c1.061 0 1.553-.932 1.553-1.794s-.492-1.77-1.553-1.77c-1.062 0-1.553.908-1.553 1.77s.491 1.793 1.553 1.793zM63.445 12.328c1.62 0 2.917 1.161 2.917 2.897 0 1.736-1.296 2.943-2.917 2.943-1.62 0-2.917-1.207-2.917-2.943s1.297-2.897 2.917-2.897zm0 4.689c1.062 0 1.553-.932 1.553-1.794s-.491-1.77-1.553-1.77c-1.062 0-1.553.908-1.553 1.77-.002.862.491 1.793 1.553 1.793zM67.178 9.315h1.34v5.493h.033l2.035-2.322h1.721l-2.324 2.495 2.47 3.022h-1.776l-2.124-2.828h-.032v2.828H67.18V9.315h-.002zM76.112 13.958a1.51 1.51 0 00-1.174-.598c-.424 0-.862.16-.862.598 0 .426.415.541 1.162.723.794.197 1.733.563 1.733 1.643 0 1.346-1.062 1.84-2.235 1.84-.827 0-1.688-.322-2.203-.908l.883-.85c.29.39.794.69 1.374.69.39 0 .861-.161.861-.657 0-.46-.414-.598-1.23-.793-.793-.196-1.587-.529-1.587-1.563 0-1.23 1.073-1.758 2.135-1.758.77 0 1.576.276 2.011.838l-.868.795zM35.478 4.956c0 1.399 1.089 2.421 2.472 2.421 1.384 0 2.474-1.02 2.474-2.421V1.743h-1.34v3.048c0 .755-.492 1.26-1.138 1.26-.647 0-1.136-.505-1.136-1.26V1.743h-1.34l.008 3.213zM44.005 3.033h1.599v4.233h1.34V3.033h1.596v-1.29h-4.535v1.29zM43.14 1.743H41.8v5.523h1.34V1.743zM30.067 3.033h1.6v4.233h1.339V3.033h1.597v-1.29h-4.536v1.29zM23.038 1.743H21.7v5.523h1.34V1.743zM29.361 4.054c0-1.4-1.09-2.422-2.474-2.422-1.383 0-2.474 1.02-2.474 2.422v3.212h1.34V4.218c0-.755.49-1.26 1.136-1.26.646 0 1.137.505 1.137 1.26v3.048h1.34l-.005-3.212z" fill="#fff"/></g><defs><clipPath id="clip0_325_131469"><path fill="#fff" transform="translate(.986 .763)" d="M0 0h76v20H0z"/></clipPath></defs></svg>