<svg width="218" height="52" viewBox="0 0 218 52" fill="none" xmlns="http://www.w3.org/2000/svg"><rect x="1.116" y=".528" width="177.915" height="20.212" rx="2.313" fill="#000"/><rect x="1.116" y="16.274" width="177.915" height="19.977" rx="2.313" fill="#000"/><rect x=".895" y="31.551" width="217" height="19.977" rx="2.313" fill="#000"/><path d="M15.519 12.657v.056l1.568-.098v2.618h-6.132c-3.136 0-5.32-1.778-5.32-5.068 0-3.038 2.366-5.124 5.502-5.124 3.136 0 5.418 2.072 5.418 4.998 0 1.134-.546 2.198-1.036 2.618zm-6.342-2.436c0 1.288.826 2.212 1.96 2.212 1.12 0 1.96-.924 1.96-2.212 0-1.288-.84-2.128-1.96-2.128-1.134 0-1.96.84-1.96 2.128zm13.457 5.292c-3.094 0-4.592-1.82-4.592-4.172v-6.02h3.332v5.656c0 .938.476 1.512 1.316 1.512.84 0 1.316-.574 1.316-1.512V5.321h3.318v6.02c0 2.352-1.596 4.172-4.69 4.172zm6.404-.28V5.321h3.36v9.912h-3.36zm4.76-4.956c0-3.178 2.395-5.236 5.39-5.236 1.527 0 2.969.532 3.879 1.372l-2.044 2.464c-.364-.49-.952-.742-1.638-.742-1.106 0-2.002.826-2.002 2.142 0 1.288.924 2.114 2.002 2.114.756 0 1.33-.364 1.638-.798l2.044 2.45c-.882.882-2.226 1.47-3.878 1.47-2.996 0-5.39-2.114-5.39-5.236zm16.119 4.956l-2.646-3.948h-.028v3.948h-3.248V5.321h3.234v3.654h.028l2.646-3.654h3.92l-3.724 4.536 3.906 5.376h-4.088zm8.69-7.322h-.826v1.218h.895c.462 0 .798-.21.798-.658 0-.378-.35-.56-.867-.56zm.028 3.36h-.854v1.344h.994c.517 0 .882-.238.882-.686 0-.532-.616-.658-1.022-.658zm2.52-1.232v.042c.951.224 1.861 1.022 1.861 2.254 0 2.17-1.917 2.898-3.85 2.898h-4.493V5.321h4.073c1.61 0 3.864.336 3.864 2.632 0 1.064-.587 1.75-1.456 2.086zm2.777.182c0-3.178 2.366-5.18 5.502-5.18 3.136 0 5.516 2.002 5.516 5.18s-2.38 5.292-5.516 5.292-5.502-2.114-5.502-5.292zm3.542 0c0 1.288.826 2.212 1.96 2.212 1.12 0 1.96-.924 1.96-2.212 0-1.288-.84-2.128-1.96-2.128-1.134 0-1.96.84-1.96 2.128zm8.434 0c0-3.178 2.366-5.18 5.502-5.18 3.136 0 5.516 2.002 5.516 5.18s-2.38 5.292-5.516 5.292-5.502-2.114-5.502-5.292zm3.542 0c0 1.288.826 2.212 1.96 2.212 1.12 0 1.96-.924 1.96-2.212 0-1.288-.84-2.128-1.96-2.128-1.134 0-1.96.84-1.96 2.128zm14.805 5.012l-2.646-3.948h-.028v3.948h-3.248V5.321h3.234v3.654h.028l2.646-3.654h3.92l-3.724 4.536 3.906 5.376h-4.088zm8.003.28c-1.596 0-3.164-.602-4.172-1.498l2.03-2.212c.462.504 1.316.966 2.128.966.378 0 .742-.112.742-.462 0-.364-.35-.504-1.75-.966-1.344-.448-2.562-1.162-2.562-2.898 0-2.464 2.212-3.402 4.158-3.402 1.302 0 2.758.532 3.78 1.47l-2.072 2.114c-.448-.56-1.19-.854-1.708-.854-.49 0-.812.126-.812.448 0 .294.294.392.98.616 1.428.462 3.346 1.092 3.346 3.136 0 2.394-2.086 3.542-4.088 3.542zm11.917-5.88h-.07l.154 5.6h-3.108V5.321h4.354l1.792 5.334h.07l1.554-5.334h4.494v9.912h-3.234l.098-5.572-.084-.014-1.848 5.586h-2.352l-1.82-5.6zm9.937 5.6l3.906-9.912h3.542l3.864 9.912h-3.626l-.518-1.456h-3.15l-.49 1.456h-3.528zm6.426-4.004l-.798-2.45-.812 2.45h1.61zm9.568 4.004h-3.976V5.321h3.696c3.122 0 5.936 1.106 5.936 4.9 0 3.486-2.716 5.012-5.656 5.012zm-.028-7.084h-.742v4.228h.616c1.554 0 2.436-.644 2.436-2.184 0-1.274-.91-2.044-2.31-2.044zm7.085 7.084V5.321h6.818v2.772h-3.682v.854h3.458v2.59h-3.458v.924h3.92v2.772h-7.056zm11.935 0V5.321h3.36v9.912h-3.36zm10.151-7.098v7.098h-3.332V8.135h-2.436V5.321h8.204v2.814h-2.436zM6.083 30.233v-9.912h4.27c1.96 0 4.004.7 4.004 3.22 0 1.204-.63 2.17-1.736 2.674l2.52 4.018h-3.836L9.4 26.691h-.098v3.542h-3.22zm3.192-7.322v1.596h.658c.462 0 1.162-.112 1.162-.826 0-.7-.602-.77-1.022-.77h-.798zm6.802 7.322v-9.912h6.818v2.772h-3.682v.854h3.458v2.59h-3.458v.924h3.92v2.772h-7.056zm7.287 0l3.906-9.912h3.542l3.864 9.912H31.05l-.518-1.456h-3.15l-.49 1.456h-3.528zm6.426-4.004l-.798-2.45-.812 2.45h1.61zm5.592 4.004v-9.912h3.36v7.056h3.29v2.856h-6.65zm7.683 0v-9.912h3.36v7.056h3.29v2.856h-6.65zm12.482-4.06v4.06h-3.332v-4.06l-3.738-5.852h4.018l1.568 2.912 1.498-2.912h3.92l-3.934 5.852zm53.56-3.038v7.098h-3.332v-7.098h-2.436v-2.814h8.204v2.814h-2.436zm2.58 2.086c0-3.178 2.366-5.18 5.502-5.18 3.136 0 5.516 2.002 5.516 5.18s-2.38 5.292-5.516 5.292-5.502-2.114-5.502-5.292zm3.542 0c0 1.288.826 2.212 1.96 2.212 1.12 0 1.96-.924 1.96-2.212 0-1.288-.84-2.128-1.96-2.128-1.134 0-1.96.84-1.96 2.128zm15.407-.588h-.07l.154 5.6h-3.108v-9.912h4.354l1.792 5.334h.07l1.554-5.334h4.494v9.912h-3.234l.098-5.572-.084-.014-1.848 5.586h-2.352l-1.82-5.6zm9.937 5.6l3.906-9.912h3.542l3.864 9.912h-3.626l-.518-1.456h-3.15l-.49 1.456h-3.528zm6.426-4.004l-.798-2.45-.812 2.45h1.61zm11.514 4.004l-2.646-3.948h-.028v3.948h-3.248v-9.912h3.234v3.654h.028l2.646-3.654h3.92l-3.724 4.536 3.906 5.376h-4.088zm4.755 0v-9.912h6.818v2.772h-3.682v.854h3.458v2.59h-3.458v.924h3.92v2.772h-7.056zm-69.784 8.678h-.826v1.218h.895c.463 0 .799-.21.799-.658 0-.378-.35-.56-.868-.56zm.028 3.36h-.855v1.344h.995c.517 0 .882-.238.882-.686 0-.532-.617-.658-1.023-.658zm2.52-1.232v.042c.952.224 1.862 1.022 1.862 2.254 0 2.17-1.919 2.898-3.85 2.898h-4.495v-9.912h4.075c1.61 0 3.864.336 3.864 2.632 0 1.064-.588 1.75-1.457 2.086zm2.077 5.194l3.906-9.912h3.542l3.864 9.912h-3.626l-.518-1.456h-3.15l-.49 1.456h-3.528zm6.426-4.004l-.798-2.45-.812 2.45h1.61zm8.839 4.284c-1.596 0-3.164-.602-4.172-1.498l2.03-2.212c.462.504 1.316.966 2.128.966.378 0 .742-.112.742-.462 0-.364-.35-.504-1.75-.966-1.344-.448-2.562-1.162-2.562-2.898 0-2.464 2.212-3.402 4.158-3.402 1.302 0 2.758.532 3.78 1.47l-2.072 2.114c-.448-.56-1.19-.854-1.708-.854-.49 0-.812.126-.812.448 0 .294.294.392.98.616 1.428.462 3.346 1.092 3.346 3.136 0 2.394-2.086 3.542-4.088 3.542zm5.392-.28v-9.912h6.818v2.772h-3.682v.854h3.458v2.59h-3.458v.924h3.92v2.772h-7.056zm12.412 0h-3.976v-9.912h3.696c3.122 0 5.936 1.106 5.936 4.9 0 3.486-2.716 5.012-5.656 5.012zm-.028-7.084h-.742v4.228h.616c1.554 0 2.436-.644 2.436-2.184 0-1.274-.91-2.044-2.31-2.044zm10.137 2.072c0-3.178 2.366-5.18 5.502-5.18 3.136 0 5.516 2.002 5.516 5.18s-2.38 5.292-5.516 5.292-5.502-2.114-5.502-5.292zm3.542 0c0 1.288.826 2.212 1.96 2.212 1.12 0 1.96-.924 1.96-2.212 0-1.288-.84-2.128-1.96-2.128-1.134 0-1.96.84-1.96 2.128zm8.883 5.012v-9.912h3.318l2.828 5.026h.056l-.14-5.026h3.164v9.912h-3.402l-2.744-4.732h-.056l.14 4.732h-3.164zm53.478-1.582c0-.994.854-1.82 1.876-1.82.98 0 1.82.826 1.82 1.82 0 1.022-.84 1.806-1.82 1.806-1.022 0-1.876-.784-1.876-1.806z" fill="#fff"/><path d="M63.231 30.233v-9.912h6.818v2.772h-3.682v.854h3.458v2.59h-3.458v.924h3.92v2.772h-7.056zm7.288 0l3.906-9.912h3.542l3.864 9.912h-3.626l-.518-1.456h-3.15l-.49 1.456h-3.528zm6.426-4.004l-.798-2.45-.812 2.45h1.61zm8.839 4.284c-1.596 0-3.164-.602-4.172-1.498l2.03-2.212c.462.504 1.316.966 2.128.966.378 0 .742-.112.742-.462 0-.364-.35-.504-1.75-.966-1.344-.448-2.562-1.162-2.562-2.898 0-2.464 2.212-3.402 4.158-3.402 1.302 0 2.758.532 3.78 1.47l-2.072 2.114c-.448-.56-1.19-.854-1.708-.854-.49 0-.812.126-.812.448 0 .294.294.392.98.616 1.428.462 3.346 1.092 3.346 3.136 0 2.394-2.086 3.542-4.088 3.542zm11.038-4.34v4.06H93.49v-4.06l-3.738-5.852h4.018l1.568 2.912 1.498-2.912h3.92l-3.934 5.852zM10.06 46.233H6.083v-9.912h3.696c3.122 0 5.936 1.106 5.936 4.9 0 3.486-2.716 5.012-5.656 5.012zm-.028-7.084h-.742v4.228h.616c1.554 0 2.436-.644 2.436-2.184 0-1.274-.91-2.044-2.31-2.044zm7.085 7.084v-9.912h6.818v2.772h-3.682v.854h3.458v2.59h-3.458v.924h3.92v2.772h-7.056zm7.987-4.956c0-3.178 2.394-5.236 5.39-5.236 1.526 0 2.968.532 3.878 1.372l-2.044 2.464c-.364-.49-.952-.742-1.638-.742-1.106 0-2.002.826-2.002 2.142 0 1.288.924 2.114 2.002 2.114.756 0 1.33-.364 1.638-.798l2.044 2.45c-.882.882-2.226 1.47-3.878 1.47-2.996 0-5.39-2.114-5.39-5.236zM35.3 46.233v-9.912h3.36v9.912H35.3zm8.457.28c-1.596 0-3.164-.602-4.172-1.498l2.03-2.212c.462.504 1.316.966 2.127.966.379 0 .742-.112.742-.462 0-.364-.35-.504-1.75-.966-1.343-.448-2.562-1.162-2.562-2.898 0-2.464 2.213-3.402 4.159-3.402 1.301 0 2.758.532 3.78 1.47l-2.072 2.114c-.449-.56-1.19-.854-1.709-.854-.49 0-.811.126-.811.448 0 .294.294.392.98.616 1.427.462 3.345 1.092 3.345 3.136 0 2.394-2.086 3.542-4.087 3.542zm5.392-.28v-9.912h3.36v9.912h-3.36zm4.761-5.012c0-3.178 2.366-5.18 5.502-5.18 3.136 0 5.516 2.002 5.516 5.18s-2.38 5.292-5.516 5.292-5.502-2.114-5.502-5.292zm3.542 0c0 1.288.826 2.212 1.96 2.212 1.12 0 1.96-.924 1.96-2.212 0-1.288-.84-2.128-1.96-2.128-1.134 0-1.96.84-1.96 2.128zm8.883 5.012v-9.912h3.318l2.828 5.026h.056l-.14-5.026h3.164v9.912h-3.402l-2.744-4.732h-.056l.14 4.732h-3.164zm14.322.28c-1.596 0-3.164-.602-4.172-1.498l2.03-2.212c.462.504 1.316.966 2.128.966.378 0 .742-.112.742-.462 0-.364-.35-.504-1.75-.966-1.344-.448-2.562-1.162-2.562-2.898 0-2.464 2.212-3.402 4.158-3.402 1.302 0 2.758.532 3.78 1.47l-2.072 2.114c-.448-.56-1.19-.854-1.708-.854-.49 0-.812.126-.812.448 0 .294.294.392.98.616 1.428.462 3.346 1.092 3.346 3.136 0 2.394-2.086 3.542-4.088 3.542zm91.605-.28h-3.976v-9.912h3.696c3.122 0 5.936 1.106 5.936 4.9 0 3.486-2.716 5.012-5.656 5.012zm-.028-7.084h-.742v4.228h.616c1.554 0 2.436-.644 2.436-2.184 0-1.274-.91-2.044-2.31-2.044zm5.595 7.084l3.906-9.912h3.542l3.864 9.912h-3.626l-.518-1.456h-3.15l-.49 1.456h-3.528zm6.426-4.004l-.798-2.45-.812 2.45h1.61zm9.699-3.094v7.098h-3.332v-7.098h-2.436v-2.814h8.204v2.814h-2.436zm1.471 7.098l3.906-9.912h3.542l3.864 9.912h-3.626l-.518-1.456h-3.15l-.49 1.456h-3.528zm6.426-4.004l-.798-2.45-.812 2.45h1.61z" fill="#61FE8B"/></svg>