<svg width="142" height="9" viewBox="0 0 142 9" fill="none" xmlns="http://www.w3.org/2000/svg"><path d="M4.448 2.31H2.072v1.168h2.192v1.128H2.072v2.2H.72V1.142h3.728V2.31zM5.77 4.358h1.688c0-.416-.264-.76-.784-.76-.504 0-.872.352-.904.76zm2.896.504c0 .104 0 .216-.008.312H5.77c.04.44.48.752.952.752.416 0 .704-.176.88-.416l.912.576c-.376.544-1 .848-1.808.848-1.2 0-2.192-.76-2.192-2.104 0-1.304.944-2.136 2.152-2.136 1.176 0 2 .808 2 2.168zm1.998 1.944H9.336V.758h1.328v6.048zm2.303-5.256c0 .408-.336.72-.752.72a.735.735 0 01-.752-.72c0-.384.328-.72.752-.72.416 0 .752.32.752.72zm-.096 5.256h-1.312V2.822h1.312v3.984zm4.383-3.576l-.76.88c-.144-.192-.432-.32-.696-.32-.552 0-.92.472-.92 1.024s.36 1.016.936 1.016c.264 0 .552-.104.712-.296l.728.888c-.328.32-.888.512-1.472.512-1.256 0-2.232-.8-2.232-2.12 0-1.296.984-2.12 2.224-2.12.568 0 1.168.216 1.48.536zm1.783-1.68c0 .408-.336.72-.752.72a.735.735 0 01-.752-.72c0-.384.328-.72.752-.72.416 0 .752.32.752.72zm-.096 5.256H17.63V2.822h1.312v3.984zm3.232-1.6V5.07h-.168c-.576 0-1.224.072-1.224.544 0 .304.304.408.568.408.528 0 .824-.32.824-.816zm-1.744-1.128l-.664-.712c.464-.44 1.128-.672 1.776-.672 1.336 0 1.832.656 1.832 2.104v2.008h-1.2v-.424h-.024c-.2.328-.656.52-1.128.52-.632 0-1.448-.312-1.448-1.248 0-1.152 1.4-1.344 2.56-1.344v-.064c0-.392-.312-.576-.72-.576-.376 0-.744.184-.984.408zm10.894 2.728h-1.52l-.44-1.112h-2.192l-.416 1.112h-1.488l2.376-5.664h1.328l2.352 5.664zm-2.336-2.208l-.704-1.944-.72 1.944h1.424zm6.796 2.208h-1.208v-.52h-.016c-.256.4-.776.632-1.304.632-1.2 0-1.896-1.008-1.896-2.12s.72-2.088 1.88-2.088c.584 0 .992.272 1.216.536h.016V.758h1.312v6.048zm-1.256-2c0-.504-.368-1.024-.96-1.024-.624 0-.944.504-.944 1.016 0 .52.32 1.032.944 1.032.592 0 .96-.504.96-1.024zm6.362 2H39.68v-.52h-.016c-.256.4-.776.632-1.304.632-1.2 0-1.896-1.008-1.896-2.12s.72-2.088 1.88-2.088c.584 0 .992.272 1.216.536h.016V.758h1.312v6.048zm-1.256-2c0-.504-.368-1.024-.96-1.024-.624 0-.944.504-.944 1.016 0 .52.32 1.032.944 1.032.592 0 .96-.504.96-1.024zm3.194-.448h1.688c0-.416-.264-.76-.784-.76-.504 0-.872.352-.904.76zm2.896.504c0 .104 0 .216-.008.312h-2.888c.04.44.48.752.952.752.416 0 .704-.176.88-.416l.912.576c-.376.544-1 .848-1.808.848-1.2 0-2.192-.76-2.192-2.104 0-1.304.944-2.136 2.152-2.136 1.176 0 2 .808 2 2.168zm3.293-2.12l-.056 1.152a1.28 1.28 0 00-.336-.04c-.704 0-.936.576-.936.904v2.048h-1.312V2.822h1.264v.576h.016c.2-.4.592-.688 1.08-.688.104 0 .216.008.28.032zm1.716 4.064h-1.328V.758h1.328v6.048zm1.935-2.448h1.688c0-.416-.264-.76-.784-.76-.504 0-.872.352-.904.76zm2.896.504c0 .104 0 .216-.008.312h-2.888c.04.44.48.752.952.752.416 0 .704-.176.88-.416l.912.576c-.376.544-1 .848-1.808.848-1.2 0-2.192-.76-2.192-2.104 0-1.304.944-2.136 2.152-2.136 1.176 0 2 .808 2 2.168zm4.685-2.04l-1.783 4.584c-.32.832-.753 1.32-1.753 1.32-.248 0-.528-.04-.72-.088l.145-1.104c.127.04.295.072.423.072.408 0 .544-.192.672-.536l.129-.328-1.664-3.92h1.456l.888 2.56h.024l.791-2.56h1.392zm1.563 2.704l-.776 2.272h-1.08l.6-2.272h1.255zm8.492.616v.664h-3.328c-1.728 0-2.944-1.144-2.944-2.904 0-1.704 1.256-2.904 2.952-2.904 1.68 0 2.928 1.2 2.928 2.904 0 1.008-.472 1.792-1.168 2.224v.016h1.56zm-5.416-2.24c0 1.24.816 2.208 2.088 2.208 1.248 0 2.088-.968 2.088-2.208 0-1.208-.8-2.208-2.08-2.208-1.272 0-2.096 1-2.096 2.208zm9.381 2.904h-.712a9.063 9.063 0 01-.032-.624h-.016c-.192.4-.688.728-1.24.728-.976 0-1.416-.696-1.416-1.544V3.014h.752V5.11c0 .624.168 1.168.864 1.168.6 0 1.016-.496 1.016-1.248V3.014h.752V5.99c0 .2.008.568.032.816zm1.873-3.792v3.792h-.752V3.014h.752zm.128-1.368c0 .272-.232.48-.504.48a.49.49 0 01-.496-.48c0-.272.224-.488.496-.488s.504.208.504.488zm4.222 1.888l-.544.44c-.16-.248-.512-.432-.872-.432-.784 0-1.24.64-1.24 1.368 0 .72.456 1.368 1.248 1.368.384 0 .712-.16.912-.416l.504.456c-.32.368-.808.592-1.416.592-1.168 0-2.04-.792-2.04-2 0-1.192.864-2 2.024-2 .536 0 1.112.216 1.424.624zM81.852.758v3.904h.024l1.592-1.648h1.008L82.7 4.734l1.928 2.072h-1.04l-1.712-1.968h-.024v1.968H81.1V.758h.752zm3.33 6.048V1.142h1.953c.856 0 1.776.352 1.776 1.432 0 .624-.4 1.072-.992 1.232v.016c.728.088 1.256.584 1.256 1.376 0 1.088-.944 1.608-2.128 1.608h-1.864zm.793-5v1.728h1.032c.608 0 1.112-.264 1.112-.88 0-.608-.488-.848-1.24-.848h-.904zm0 2.4v1.928h.992c.672 0 1.408-.208 1.408-.976 0-.664-.472-.952-1.336-.952h-1.064zm7.98.696c0 1.168-.887 2.008-2.047 2.008-1.16 0-2.04-.84-2.04-2.008 0-1.168.88-1.992 2.04-1.992 1.16 0 2.048.824 2.048 1.992zm-.783 0c0-.72-.448-1.368-1.264-1.368-.808 0-1.264.648-1.264 1.368 0 .72.456 1.376 1.264 1.376.816 0 1.264-.656 1.264-1.376zm5.506 0c0 1.168-.888 2.008-2.048 2.008-1.16 0-2.04-.84-2.04-2.008 0-1.168.88-1.992 2.04-1.992 1.16 0 2.048.824 2.048 1.992zm-.784 0c0-.72-.448-1.368-1.264-1.368-.808 0-1.264.648-1.264 1.368 0 .72.456 1.376 1.264 1.376.816 0 1.264-.656 1.264-1.376zM100.33.758v3.904h.024l1.592-1.648h1.008l-1.776 1.72 1.928 2.072h-1.04l-1.712-1.968h-.024v1.968h-.752V.758h.752zm5.812 2.776l-.52.44a1.035 1.035 0 00-.88-.472c-.344 0-.704.136-.704.496 0 .32.288.44.864.568.72.16 1.272.456 1.272 1.12 0 .896-.744 1.224-1.512 1.224-.576 0-1.168-.224-1.528-.68l.536-.456c.2.296.584.528 1.008.528.376 0 .752-.136.752-.552 0-.352-.344-.48-.992-.632-.504-.12-1.104-.336-1.104-1.048 0-.816.712-1.16 1.432-1.16.536 0 1.104.216 1.376.624zm5.867 0l-.544.44c-.16-.248-.512-.432-.872-.432-.784 0-1.24.64-1.24 1.368 0 .72.456 1.368 1.248 1.368.384 0 .712-.16.912-.416l.504.456c-.32.368-.808.592-1.416.592-1.168 0-2.04-.792-2.04-2 0-1.192.864-2 2.024-2 .536 0 1.112.216 1.424.624zm3.977 3.272h-.712a9.063 9.063 0 01-.032-.624h-.016c-.192.4-.688.728-1.24.728-.976 0-1.416-.696-1.416-1.544V3.014h.752V5.11c0 .624.168 1.168.864 1.168.6 0 1.016-.496 1.016-1.248V3.014h.752V5.99c0 .2.008.568.032.816zm3.68-3.272l-.52.44a1.035 1.035 0 00-.88-.472c-.344 0-.704.136-.704.496 0 .32.288.44.864.568.72.16 1.272.456 1.272 1.12 0 .896-.744 1.224-1.512 1.224-.576 0-1.168-.224-1.528-.68l.536-.456c.2.296.584.528 1.008.528.376 0 .752-.136.752-.552 0-.352-.344-.48-.992-.632-.504-.12-1.104-.336-1.104-1.048 0-.816.712-1.16 1.432-1.16.536 0 1.104.216 1.376.624zm2.683-.52v.616h-1.008v1.976c0 .456.16.64.536.64.136 0 .312-.032.44-.096l.024.616a1.95 1.95 0 01-.64.104c-.712 0-1.104-.4-1.104-1.184V3.63h-.728v-.616h.728V1.926h.744v1.088h1.008zm4.457 1.888c0 1.168-.888 2.008-2.048 2.008-1.16 0-2.04-.84-2.04-2.008 0-1.168.88-1.992 2.04-1.992 1.16 0 2.048.824 2.048 1.992zm-.784 0c0-.72-.448-1.368-1.264-1.368-.808 0-1.264.648-1.264 1.368 0 .72.456 1.376 1.264 1.376.816 0 1.264-.656 1.264-1.376zm2.402-1.264c.192-.4.632-.728 1.208-.728.504 0 .944.224 1.176.76a1.43 1.43 0 011.288-.76c.976 0 1.416.696 1.416 1.544v2.352h-.752V4.702c0-.616-.184-1.16-.84-1.16-.688 0-.96.624-.96 1.216v2.048h-.752V4.55c0-.592-.2-1.008-.8-1.008-.552 0-.968.496-.968 1.248v2.016h-.752V3.83c0-.2-.008-.568-.032-.816h.712c.016.192.032.464.032.624h.024zm6.718.936h2.256c-.016-.6-.368-1.072-1.064-1.072-.648 0-1.144.48-1.192 1.072zm3.016.304c0 .08 0 .168-.008.256h-3.008c.024.648.568 1.152 1.232 1.152.512 0 .888-.256 1.104-.576l.528.424c-.408.528-.96.776-1.632.776-1.152 0-2-.8-2-1.992 0-1.184.848-2.008 1.96-2.008 1.12 0 1.824.76 1.824 1.968zm.89-1.048c0-.2-.008-.568-.032-.816h.712c.016.192.032.48.032.64h.024a1.285 1.285 0 011.456-.712l-.032.696a1.504 1.504 0 00-.344-.04c-.72 0-1.064.584-1.064 1.216v1.992h-.752V3.83z" fill="#fff"/></svg>