<svg width="208" height="49" viewBox="0 0 208 49" fill="none" xmlns="http://www.w3.org/2000/svg"><rect x="1.108" y=".53" width="192.392" height="19.023" rx="2.313" fill="#000"/><rect x="1.108" y="15.351" width="164.392" height="18.802" rx="2.313" fill="#000"/><rect x=".888" y="29.728" width="115.612" height="18.802" rx="2.313" fill="#000"/><path d="M6.005 14.235V5.031h3.12v9.204h-3.12zm7.67-4.602c0-2.95 2.224-4.862 5.006-4.862 1.417 0 2.756.494 3.6 1.274l-1.897 2.288c-.338-.455-.884-.689-1.521-.689-1.027 0-1.86.767-1.86 1.99 0 1.195.859 1.962 1.86 1.962.702 0 1.235-.338 1.52-.74l1.899 2.274c-.82.82-2.067 1.365-3.601 1.365-2.782 0-5.005-1.963-5.005-4.862zm8.25 4.602l3.627-9.204h3.289l3.588 9.204h-3.367l-.481-1.352h-2.925l-.455 1.352h-3.276zm5.967-3.718l-.741-2.275-.754 2.275h1.495zm5.192 3.718V5.031h3.08l2.627 4.667h.052l-.13-4.667h2.938v9.204h-3.16l-2.547-4.394h-.052l.13 4.394h-2.938zm16.341-5.2h-.065l.143 5.2h-2.886V5.031h4.043l1.664 4.953h.065l1.443-4.953h4.173v9.204h-3.003l.091-5.174-.078-.013-1.716 5.187h-2.184l-1.69-5.2zm9.228 5.2l3.627-9.204h3.288l3.588 9.204H65.79l-.48-1.352h-2.925l-.456 1.352h-3.275zm5.967-3.718l-.742-2.275-.754 2.275h1.495zm10.69 3.718l-2.457-3.666h-.026v3.666h-3.016V5.031h3.003v3.393h.026l2.457-3.393h3.64L75.48 9.243l3.627 4.992H75.31zm4.416 0V5.031h6.331v2.574h-3.419v.793h3.211v2.405h-3.21v.858h3.64v2.574h-6.553zM5.59 24.581c0-2.95 2.197-4.81 5.109-4.81s5.122 1.86 5.122 4.81c0 2.951-2.21 4.914-5.122 4.914s-5.11-1.963-5.11-4.914zm3.289 0c0 1.196.767 2.054 1.82 2.054 1.04 0 1.82-.858 1.82-2.054 0-1.196-.78-1.976-1.82-1.976-1.053 0-1.82.78-1.82 1.976zm11.277-1.963v.975h2.808v2.522h-2.795v3.12h-3.042v-9.204h6.214v2.587h-3.185zm13.39 6.617v-3.497h-2.522v3.497H27.93v-9.204h3.08v3.12h2.522v-3.12h3.108v9.204h-3.095zm4.391-4.654c0-2.95 2.197-4.81 5.11-4.81 2.911 0 5.121 1.86 5.121 4.81 0 2.951-2.21 4.914-5.122 4.914s-5.109-1.963-5.109-4.914zm3.29 0c0 1.196.766 2.054 1.82 2.054 1.04 0 1.82-.858 1.82-2.054 0-1.196-.78-1.976-1.82-1.976-1.054 0-1.82.78-1.82 1.976zm14.357-.546l-1.339 5.2h-3.12l-2.509-9.204h3.276l.988 5.174h.052l1.066-5.174h3.237l1.157 5.174h.052l1.001-5.174h3.172l-2.56 9.204h-3.12l-1.3-5.2h-.053zm13.799 0h-.065l.143 5.2h-2.886v-9.204h4.043l1.664 4.953h.065l1.443-4.953h4.173v9.204h-3.003l.091-5.174-.078-.013-1.716 5.187h-2.184l-1.69-5.2zm15.689 1.43v3.77h-3.094v-3.77l-3.471-5.434h3.73l1.457 2.704 1.39-2.704h3.64l-3.652 5.434zm23.798 16.301c0-.923.793-1.69 1.742-1.69.91 0 1.69.767 1.69 1.69 0 .95-.78 1.677-1.69 1.677-.949 0-1.742-.728-1.742-1.677z" fill="#fff"/><path d="M94.761 11.271h-.87v2.964h-3.082V5.031h3.952c1.872 0 3.77.715 3.77 3.094 0 2.275-1.859 3.146-3.77 3.146zm-.22-3.835h-.65v1.482h.65c.467 0 .935-.22.935-.767 0-.585-.468-.715-.936-.715zm5.155 6.8V5.03h3.965c1.82 0 3.718.65 3.718 2.99 0 1.118-.585 2.015-1.612 2.483l2.34 3.731h-3.562l-1.768-3.289h-.091v3.29h-2.99zm2.964-6.8v1.482h.611c.429 0 1.079-.104 1.079-.767 0-.65-.559-.715-.949-.715h-.741zm5.9 2.145c0-2.95 2.197-4.81 5.109-4.81s5.122 1.86 5.122 4.81c0 2.951-2.21 4.914-5.122 4.914s-5.109-1.963-5.109-4.914zm3.289 0c0 1.196.767 2.054 1.82 2.054 1.04 0 1.82-.858 1.82-2.054 0-1.196-.78-1.976-1.82-1.976-1.053 0-1.82.78-1.82 1.976zm10.145 4.914c-1.651 0-3.055-1.014-3.419-2.34l2.652-1.014c.065.273.247.533.559.533.39 0 .507-.299.507-.715V5.031h3.107v5.798c0 1.651-.598 3.666-3.406 3.666zm5.086-.26V5.031h6.331v2.574h-3.419v.793h3.211v2.405h-3.211v.858h3.64v2.574h-6.552zm7.417-4.602c0-2.95 2.223-4.862 5.005-4.862 1.417 0 2.756.494 3.601 1.274l-1.898 2.288c-.338-.455-.884-.689-1.521-.689-1.027 0-1.859.767-1.859 1.99 0 1.195.858 1.962 1.859 1.962.702 0 1.235-.338 1.521-.74l1.898 2.274c-.819.82-2.067 1.365-3.601 1.365-2.782 0-5.005-1.963-5.005-4.862zm13.98-1.989v6.591h-3.094v-6.59h-2.262V5.03h7.618v2.613h-2.262zm3.206 6.591V5.031h3.12v9.204h-3.12zm4.421-4.654c0-2.95 2.197-4.81 5.109-4.81s5.122 1.86 5.122 4.81c0 2.951-2.21 4.914-5.122 4.914s-5.109-1.963-5.109-4.914zm3.289 0c0 1.196.767 2.054 1.82 2.054 1.04 0 1.82-.858 1.82-2.054 0-1.196-.78-1.976-1.82-1.976-1.053 0-1.82.78-1.82 1.976zm8.248 4.654V5.031h3.081l2.626 4.667h.052l-.13-4.667h2.938v9.204h-3.159l-2.548-4.394h-.052l.13 4.394h-2.938zm13.3.26c-1.482 0-2.938-.559-3.874-1.39l1.885-2.055c.429.468 1.222.897 1.976.897.351 0 .689-.104.689-.429 0-.338-.325-.468-1.625-.897-1.248-.416-2.379-1.079-2.379-2.69 0-2.289 2.054-3.16 3.861-3.16 1.209 0 2.561.494 3.51 1.365L183.06 8.1c-.416-.52-1.105-.793-1.586-.793-.455 0-.754.117-.754.416 0 .273.273.364.91.572 1.326.43 3.107 1.014 3.107 2.912 0 2.223-1.937 3.29-3.796 3.29zm-85.082 7.941h-.767v1.131h.832c.429 0 .74-.195.74-.61 0-.352-.324-.52-.805-.52zm.026 3.12h-.793v1.248h.923c.48 0 .819-.22.819-.637 0-.494-.572-.61-.95-.61zm2.34-1.144v.04c.884.207 1.729.948 1.729 2.092 0 2.015-1.781 2.691-3.575 2.691h-4.173v-9.204h3.783c1.495 0 3.588.312 3.588 2.444 0 .988-.546 1.625-1.352 1.937zm7.129 5.083c-2.873 0-4.264-1.69-4.264-3.874v-5.59h3.094v5.252c0 .871.442 1.404 1.222 1.404s1.222-.533 1.222-1.404v-5.252h3.081v5.59c0 2.184-1.482 3.874-4.355 3.874zm8.962 0c-1.482 0-2.938-.559-3.874-1.39l1.885-2.055c.429.468 1.222.897 1.976.897.351 0 .689-.104.689-.429 0-.338-.325-.468-1.625-.897-1.248-.416-2.379-1.079-2.379-2.69 0-2.289 2.054-3.16 3.861-3.16 1.209 0 2.561.494 3.51 1.365l-1.924 1.963c-.416-.52-1.105-.793-1.586-.793-.455 0-.754.117-.754.416 0 .273.273.364.91.572 1.326.43 3.107 1.014 3.107 2.912 0 2.223-1.937 3.29-3.796 3.29zm5.007-.26v-9.204h3.12v9.204h-3.12zm4.837 0v-9.204h3.081l2.626 4.667h.052l-.13-4.667h2.938v9.204h-3.159l-2.548-4.394h-.052l.13 4.394h-2.938zm10.283 0v-9.204h6.331v2.574h-3.419v.793h3.211v2.405h-3.211v.858h3.64v2.574h-6.552zm10.849.26c-1.482 0-2.938-.559-3.874-1.39l1.885-2.055c.429.468 1.222.897 1.976.897.351 0 .689-.104.689-.429 0-.338-.325-.468-1.625-.897-1.248-.416-2.379-1.079-2.379-2.69 0-2.289 2.054-3.16 3.861-3.16 1.209 0 2.561.494 3.51 1.365l-1.924 1.963c-.416-.52-1.105-.793-1.586-.793-.455 0-.754.117-.754.416 0 .273.273.364.91.572 1.326.43 3.107 1.014 3.107 2.912 0 2.223-1.937 3.29-3.796 3.29zm8.024 0c-1.482 0-2.938-.559-3.874-1.39l1.885-2.055c.429.468 1.222.897 1.976.897.351 0 .689-.104.689-.429 0-.338-.325-.468-1.625-.897-1.248-.416-2.379-1.079-2.379-2.69 0-2.289 2.054-3.16 3.861-3.16 1.209 0 2.561.494 3.51 1.365l-1.924 1.963c-.416-.52-1.105-.793-1.586-.793-.455 0-.754.117-.754.416 0 .273.273.364.91.572 1.326.43 3.107 1.014 3.107 2.912 0 2.223-1.937 3.29-3.796 3.29zm-141.201 8.54l-1.34 5.2h-3.12l-2.508-9.204h3.276l.988 5.174h.052l1.066-5.174h3.237l1.157 5.174h.052l1-5.174h3.173l-2.561 9.204h-3.12l-1.3-5.2h-.052zm7.893 5.2v-9.204h3.12v9.204h-3.12zm4.837 0v-9.204h3.12v6.552h3.055v2.652h-6.175zm7.134 0v-9.204h3.12v6.552h3.055v2.652H31.98zM46 40.271h-.871v2.964h-3.081v-9.204h3.952c1.872 0 3.77.715 3.77 3.094 0 2.275-1.86 3.146-3.77 3.146zm-.221-3.835h-.65v1.482h.65c.468 0 .936-.22.936-.767 0-.585-.468-.715-.936-.715zm5.155 6.8V34.03h6.331v2.574h-3.419v.793h3.211v2.405h-3.21v.858h3.64v2.574h-6.553zm7.833 0V34.03h3.965c1.82 0 3.718.65 3.718 2.99 0 1.118-.585 2.015-1.612 2.483l2.34 3.731h-3.562l-1.768-3.289h-.09v3.29h-2.99zm2.964-6.8v1.482h.611c.43 0 1.08-.104 1.08-.767 0-.65-.56-.715-.95-.715h-.74zm9.346.182v.975h2.808v2.522h-2.795v3.12h-3.042v-9.204h6.214v2.587h-3.185zm4.108 1.963c0-2.95 2.197-4.81 5.11-4.81 2.911 0 5.121 1.86 5.121 4.81 0 2.951-2.21 4.914-5.122 4.914s-5.109-1.963-5.109-4.914zm3.29 0c0 1.196.766 2.054 1.82 2.054 1.04 0 1.82-.858 1.82-2.054 0-1.196-.78-1.976-1.82-1.976-1.054 0-1.82.78-1.82 1.976zm8.248 4.654v-9.204h3.965c1.82 0 3.718.65 3.718 2.99 0 1.118-.585 2.015-1.612 2.483l2.34 3.731H91.57l-1.767-3.289h-.091v3.29h-2.99zm2.964-6.799v1.482h.61c.43 0 1.08-.104 1.08-.767 0-.65-.56-.715-.95-.715h-.74zm9.124 1.6h-.065l.143 5.2h-2.886V34.03h4.043l1.664 4.953h.065l1.443-4.953h4.173v9.204h-3.003l.091-5.174-.078-.013-1.716 5.187H100.5l-1.69-5.2z" fill="#61FE8B"/></svg>