<svg width="86" height="59" viewBox="0 0 86 59" fill="none" xmlns="http://www.w3.org/2000/svg"><path d="M8.118 48.687l-.107 1.26a1.471 1.471 0 00-.436-.067c-.582 0-.708.465-.708.911v.485h1.076v1.193H6.867v3.636h-1.59v-3.636h-.882v-1.193h.882v-.466c0-1.183.465-2.22 2.075-2.22.271 0 .553.03.766.097zm5.335 4.984c0 1.58-1.221 2.589-2.685 2.589-1.455 0-2.677-1.008-2.677-2.59 0-1.58 1.222-2.55 2.677-2.55 1.464 0 2.685.97 2.685 2.55zm-1.531 0c0-.62-.408-1.231-1.154-1.231-.747 0-1.135.61-1.135 1.23 0 .621.398 1.252 1.144 1.252.747 0 1.145-.63 1.145-1.251zm5.525-2.492l-.068 1.396a1.555 1.555 0 00-.407-.048c-.854 0-1.135.698-1.135 1.096v2.482h-1.59v-4.83h1.532v.7h.02c.242-.486.717-.835 1.308-.835.127 0 .262.01.34.039zm7.674 2.928c0 1.503-1.328 2.182-2.589 2.182-1.25 0-2.385-.543-2.753-1.823l1.512-.398c.126.456.543.854 1.164.854.465 0 .999-.233.999-.873 0-.698-.718-.902-1.397-.902h-.436v-1.192h.475c.611 0 1.202-.155 1.202-.815 0-.494-.416-.756-.862-.756-.466 0-.834.3-.941.766l-1.513-.35c.33-1.153 1.416-1.744 2.56-1.744 1.212 0 2.414.62 2.414 1.939 0 .756-.484 1.318-1.153 1.493v.03c.775.183 1.318.823 1.318 1.59zm10.991 1.998h-1.59v-2.638c0-.552-.126-1.018-.689-1.018-.543 0-.804.504-.804 1.047v2.609h-1.59V53.35c0-.553-.214-.902-.689-.902-.504 0-.795.456-.795 1.038v2.618h-1.6v-4.83h1.542v.67h.02c.222-.407.717-.805 1.444-.805.698 0 1.183.3 1.454.824.32-.504.825-.824 1.542-.824 1.309 0 1.755 1.067 1.755 1.978v2.987zm6.107-2.434c0 1.58-1.222 2.589-2.686 2.589-1.454 0-2.676-1.008-2.676-2.59 0-1.58 1.222-2.55 2.676-2.55 1.464 0 2.686.97 2.686 2.55zm-1.532 0c0-.62-.407-1.231-1.154-1.231-.746 0-1.134.61-1.134 1.23 0 .621.397 1.252 1.144 1.252.746 0 1.144-.63 1.144-1.251zm7.096 2.434h-1.6v-2.638c0-.533-.145-1.018-.717-1.018-.563 0-.854.485-.854 1.038v2.618h-1.6v-4.83h1.542v.67h.02c.223-.427.776-.805 1.445-.805 1.299 0 1.764 1.009 1.764 1.978v2.987zm3.852-3.636H50.5v1.842c0 .446.146.679.602.679.155 0 .349-.03.465-.078l.02 1.164a3.004 3.004 0 01-.922.145c-1.29 0-1.716-.688-1.716-1.716v-2.036h-.776v-1.193h.766v-1.27H50.5v1.27h1.135v1.193zm5.314 3.636h-1.6v-2.618c0-.543-.136-1.018-.708-1.018-.552 0-.863.455-.863 1.027v2.609h-1.59v-7.33h1.59v3.112h.02c.213-.388.717-.747 1.386-.747 1.31 0 1.765 1.009 1.765 1.978v2.987zm4.705-4.305l-.873.901c-.252-.242-.62-.436-1.008-.436-.301 0-.602.107-.602.388 0 .271.262.349.883.485.737.165 1.541.533 1.541 1.474 0 1.221-1.076 1.648-2.065 1.648-.785 0-1.6-.262-2.104-.747l.892-.94c.281.31.718.543 1.183.543.262 0 .572-.107.572-.417 0-.3-.3-.398-.96-.553-.669-.155-1.406-.495-1.406-1.406 0-1.154 1.086-1.62 2.007-1.62.718 0 1.465.233 1.94.68zM72.611 28.407c0 1.304-1.008 2.136-2.215 2.136-1.2 0-2.208-.832-2.208-2.136 0-1.304 1.008-2.104 2.208-2.104 1.207 0 2.215.8 2.215 2.104zm-1.264 0c0-.512-.335-1.016-.951-1.016-.616 0-.936.504-.936 1.016s.328 1.032.944 1.032c.616 0 .944-.52.944-1.032zm4.654-4.111l-.088 1.04a1.213 1.213 0 00-.36-.056c-.48 0-.584.384-.584.752v.4h.888v.983h-.888v3h-1.311v-3h-.728v-.984h.728v-.384c0-.975.384-1.831 1.711-1.831.224 0 .456.024.632.08zm2.912 0l-.088 1.04a1.213 1.213 0 00-.36-.056c-.48 0-.584.384-.584.752v.4h.888v.983h-.888v3h-1.312v-3h-.728v-.984h.728v-.384c0-.975.384-1.831 1.712-1.831.224 0 .456.024.632.08zM78.373 18.677a2.333 2.333 0 01-2.345 2.332 2.333 2.333 0 110-4.665 2.333 2.333 0 012.345 2.333zm-1.382 0a.972.972 0 00-.963-.963.964.964 0 00-.963.963c0 .53.432.95.963.95.518 0 .963-.42.963-.95zm-4.542-4.369a2.341 2.341 0 01-2.344 2.332 2.341 2.341 0 01-2.345-2.332 2.325 2.325 0 012.345-2.332 2.325 2.325 0 012.344 2.332zm-1.382 0a.964.964 0 00-1.925 0c0 .53.432.95.963.95.53 0 .962-.42.962-.95zm5.134-2.024l-5.146 8.996-1.098-.543 5.096-9.008 1.148.555zM32.077 33.142c0 9.444-7.661 12.431-14.214 12.431-6.938 0-13.829-3.806-15.13-10.504l10.6-2.698c.386 1.879 2.024 3.469 4.144 3.469 1.639 0 3.18-.675 3.18-2.602 0-2.313-3.276-2.89-6.07-2.89-2.072 0-5.975.433-8.914 1.01l1.204-20.863h23.176v9.54H16.562l-.193 2.458c.916-.144 1.88-.24 2.554-.24 7.035 0 13.154 3.276 13.154 10.889zm17.355 12.431c-12.527 0-15.322-10.6-15.322-18.213 0-7.613 2.795-17.828 15.322-17.828 12.576 0 15.323 10.215 15.323 17.828 0 7.613-2.747 18.213-15.322 18.213zm0-26.164c-2.842 0-3.469 4.337-3.469 7.95 0 3.759.627 8.24 3.47 8.24 2.89 0 3.469-4.481 3.469-8.24 0-3.613-.578-7.95-3.47-7.95z" fill="#14324F"/></svg>