<svg width="149" height="9" viewBox="0 0 149 9" fill="none" xmlns="http://www.w3.org/2000/svg"><path d="M4.77 1.734H3.188v4.451H1.833v-4.45H.249V.577H4.77v1.156zm2.291.428l-.055 1.14a1.268 1.268 0 00-.333-.04c-.697 0-.926.57-.926.896v2.027h-1.3V2.241H5.7v.57h.016c.198-.396.586-.68 1.07-.68a.92.92 0 01.276.03zm1.275 1.6h1.671c0-.412-.261-.753-.776-.753-.5 0-.863.349-.895.753zm2.867.499c0 .103 0 .213-.008.308h-2.86c.04.436.476.745.943.745.412 0 .697-.174.871-.412l.903.57c-.372.539-.99.84-1.79.84-1.188 0-2.17-.753-2.17-2.083 0-1.291.935-2.115 2.13-2.115 1.165 0 1.98.8 1.98 2.147zm4.639-2.02l-1.553 3.944h-1.402l-1.552-3.944h1.434l.831 2.558h.024l.832-2.558h1.386zm2.672 2.36v-.134h-.167c-.57 0-1.211.07-1.211.538 0 .301.3.404.562.404.523 0 .816-.317.816-.808zm-1.727-1.117l-.657-.704c.46-.436 1.117-.666 1.758-.666 1.323 0 1.814.65 1.814 2.083v1.988h-1.188v-.42h-.024c-.198.325-.65.515-1.117.515-.625 0-1.433-.309-1.433-1.235 0-1.14 1.386-1.33 2.534-1.33V3.65c0-.388-.309-.57-.713-.57-.372 0-.736.182-.974.403zm7.622 2.701h-1.306V4.031c0-.436-.12-.832-.587-.832-.459 0-.696.396-.696.848v2.138h-1.307V2.241h1.26v.546h.015c.182-.348.634-.657 1.18-.657 1.061 0 1.441.824 1.441 1.616v2.44zm4.722 0h-1.306V4.031c0-.436-.12-.832-.587-.832-.459 0-.696.396-.696.848v2.138h-1.307V2.241h1.259v.546h.016c.182-.348.633-.657 1.18-.657 1.061 0 1.441.824 1.441 1.616v2.44zm1.871-2.423h1.671c0-.412-.261-.753-.776-.753-.499 0-.863.349-.895.753zm2.867.499c0 .103 0 .213-.008.308h-2.859c.04.436.475.745.943.745.411 0 .697-.174.87-.412l.904.57c-.373.539-.99.84-1.79.84-1.188 0-2.17-.753-2.17-2.083 0-1.291.934-2.115 2.13-2.115 1.165 0 1.98.8 1.98 2.147zm7.775-.895c0 1.972-1.6 2.82-3.144 2.82h-2.09V.577h2.027c1.592 0 3.207.665 3.207 2.788zm-1.41 0c0-1.26-.894-1.632-1.829-1.632h-.673v3.279h.641c.967 0 1.862-.396 1.862-1.647zm6.26.831c0 1.291-.997 2.115-2.193 2.115-1.188 0-2.186-.824-2.186-2.115 0-1.29.998-2.083 2.186-2.083 1.196 0 2.194.792 2.194 2.083zm-1.25 0c0-.507-.333-1.006-.943-1.006-.61 0-.927.5-.927 1.006 0 .507.325 1.022.935 1.022.61 0 .934-.515.934-1.022zm5.811 1.988H49.75V4.031c0-.436-.12-.832-.587-.832-.459 0-.697.396-.697.848v2.138H47.16V2.241h1.259v.546h.016c.182-.348.633-.657 1.18-.657 1.061 0 1.441.824 1.441 1.616v2.44zm1.871-2.423h1.671c0-.412-.261-.753-.776-.753-.499 0-.863.349-.895.753zm2.867.499c0 .103 0 .213-.008.308h-2.859c.04.436.475.745.942.745.412 0 .697-.174.872-.412l.903.57c-.373.539-.99.84-1.79.84-1.188 0-2.17-.753-2.17-2.083 0-1.291.934-2.115 2.13-2.115 1.164 0 1.98.8 1.98 2.147zm4.829 1.552c0 1.544-.919 2.273-2.32 2.273-.69 0-1.498-.222-2.028-.618l.65-.926c.38.332.863.499 1.306.499.76 0 1.117-.444 1.117-1.101v-.238h-.024c-.245.317-.673.523-1.196.523-1.196 0-1.885-.935-1.885-2.028s.69-2.067 1.877-2.067c.491 0 .982.198 1.26.618h.015V2.24h1.228v3.572zm-1.236-1.624c0-.538-.372-.998-.958-.998s-.926.452-.926.998c0 .523.34 1.006.926 1.006.594 0 .958-.467.958-1.006zm4.437.412v-.134h-.166c-.57 0-1.212.07-1.212.538 0 .301.301.404.563.404.522 0 .815-.317.815-.808zm-1.726-1.117l-.658-.704c.46-.436 1.117-.666 1.758-.666 1.323 0 1.814.65 1.814 2.083v1.988h-1.188v-.42H63.8c-.198.325-.65.515-1.117.515-.626 0-1.434-.309-1.434-1.235 0-1.14 1.386-1.33 2.535-1.33V3.65c0-.388-.31-.57-.713-.57-.372 0-.737.182-.974.403zm5.056 2.701h-1.315V.198h1.315v5.987zm2.359-1.267l-.768 2.25h-1.07l.594-2.25h1.244zm8.407.61v.657h-3.295c-1.71 0-2.914-1.132-2.914-2.875 0-1.687 1.243-2.875 2.922-2.875 1.664 0 2.9 1.188 2.9 2.875 0 .998-.468 1.774-1.157 2.202v.016h1.544zM72.557 3.31c0 1.228.808 2.186 2.067 2.186 1.236 0 2.068-.958 2.068-2.186 0-1.196-.792-2.186-2.06-2.186-1.259 0-2.075.99-2.075 2.186zm9.288 2.875h-.705a8.995 8.995 0 01-.031-.618h-.016c-.19.396-.681.721-1.228.721-.966 0-1.402-.689-1.402-1.528V2.43h.745v2.075c0 .618.166 1.156.855 1.156.594 0 1.006-.49 1.006-1.235V2.43h.744v2.946c0 .198.008.563.032.808zM83.7 2.431v3.754h-.745V2.431h.745zm.126-1.354c0 .27-.23.475-.499.475a.485.485 0 01-.49-.475c0-.27.221-.483.49-.483.27 0 .5.206.5.483zm4.18 1.869l-.538.435c-.159-.245-.507-.427-.863-.427-.776 0-1.228.633-1.228 1.354 0 .713.451 1.354 1.236 1.354.38 0 .704-.158.902-.411l.5.451c-.317.364-.8.586-1.402.586-1.157 0-2.02-.784-2.02-1.98 0-1.18.855-1.98 2.004-1.98.53 0 1.1.214 1.41.618zM89.353.198v3.865h.024l1.576-1.632h.998l-1.758 1.703L92.1 6.185h-1.03l-1.694-1.948h-.024v1.948h-.744V.198h.744zm3.297 5.987V.578h1.933c.847 0 1.758.348 1.758 1.417 0 .618-.396 1.062-.982 1.22v.016c.72.087 1.244.578 1.244 1.362 0 1.077-.935 1.592-2.107 1.592H92.65zm.784-4.95v1.71h1.022c.602 0 1.101-.26 1.101-.87 0-.602-.483-.84-1.228-.84h-.894zm0 2.376V5.52h.983c.665 0 1.394-.206 1.394-.966 0-.658-.468-.943-1.323-.943h-1.053zm7.902.69c0 1.156-.88 1.987-2.028 1.987-1.148 0-2.02-.831-2.02-1.988 0-1.156.872-1.972 2.02-1.972 1.148 0 2.028.816 2.028 1.972zm-.777 0c0-.714-.443-1.355-1.251-1.355-.8 0-1.251.641-1.251 1.354 0 .713.451 1.362 1.251 1.362.808 0 1.251-.649 1.251-1.362zm5.452 0c0 1.156-.879 1.987-2.027 1.987-1.149 0-2.02-.831-2.02-1.988 0-1.156.871-1.972 2.02-1.972 1.148 0 2.027.816 2.027 1.972zm-.776 0c0-.714-.444-1.355-1.251-1.355-.8 0-1.252.641-1.252 1.354 0 .713.452 1.362 1.252 1.362.807 0 1.251-.649 1.251-1.362zm2.41-4.103v3.865h.024l1.576-1.632h.998l-1.758 1.703 1.909 2.051h-1.03l-1.695-1.948h-.024v1.948h-.744V.198h.744zm5.754 2.748l-.515.435a1.024 1.024 0 00-.871-.467c-.34 0-.697.135-.697.491 0 .317.285.436.856.563.712.158 1.259.451 1.259 1.108 0 .887-.737 1.212-1.497 1.212-.57 0-1.156-.222-1.513-.673l.531-.452c.198.294.578.523.998.523.372 0 .744-.134.744-.546 0-.349-.34-.475-.982-.626-.499-.119-1.093-.333-1.093-1.037 0-.808.705-1.149 1.418-1.149.531 0 1.093.214 1.362.618zm5.808 0l-.538.435c-.159-.245-.507-.427-.864-.427-.776 0-1.227.633-1.227 1.354 0 .713.451 1.354 1.235 1.354.38 0 .705-.158.903-.411l.499.451c-.317.364-.8.586-1.402.586-1.156 0-2.019-.784-2.019-1.98 0-1.18.855-1.98 2.003-1.98.531 0 1.101.214 1.41.618zm3.938 3.24h-.705a8.884 8.884 0 01-.032-.619h-.016c-.19.396-.681.721-1.227.721-.967 0-1.402-.689-1.402-1.528V2.43h.744v2.075c0 .618.166 1.156.856 1.156.594 0 1.005-.49 1.005-1.235V2.43h.745v2.946c0 .198.008.563.032.808zm3.643-3.24l-.515.435a1.024 1.024 0 00-.871-.467c-.341 0-.697.135-.697.491 0 .317.285.436.855.563.713.158 1.26.451 1.26 1.108 0 .887-.737 1.212-1.497 1.212-.57 0-1.157-.222-1.513-.673l.531-.452c.198.294.578.523.998.523.372 0 .744-.134.744-.546 0-.349-.34-.475-.982-.626-.499-.119-1.093-.333-1.093-1.037 0-.808.705-1.149 1.418-1.149.53 0 1.093.214 1.362.618zm2.656-.515v.61h-.998v1.956c0 .452.158.634.531.634.134 0 .308-.032.435-.095l.024.61a1.931 1.931 0 01-.634.103c-.705 0-1.093-.396-1.093-1.173V3.041h-.72v-.61h.72V1.354h.737v1.077h.998zm4.412 1.87c0 1.156-.879 1.987-2.027 1.987-1.149 0-2.02-.831-2.02-1.988 0-1.156.871-1.972 2.02-1.972 1.148 0 2.027.816 2.027 1.972zm-.776 0c0-.714-.444-1.355-1.251-1.355-.8 0-1.252.641-1.252 1.354 0 .713.452 1.362 1.252 1.362.807 0 1.251-.649 1.251-1.362zm2.379-1.252a1.31 1.31 0 011.196-.72c.499 0 .934.22 1.164.752a1.415 1.415 0 011.275-.753c.966 0 1.402.69 1.402 1.529v2.328h-.745V4.102c0-.61-.182-1.148-.831-1.148-.681 0-.951.618-.951 1.204v2.027h-.744V3.952c0-.586-.198-.998-.792-.998-.547 0-.958.49-.958 1.235v1.996h-.745V3.24c0-.198-.008-.562-.032-.808h.705c.016.19.032.46.032.618h.024zm6.65.926h2.234c-.016-.594-.365-1.06-1.054-1.06-.641 0-1.132.474-1.18 1.06zm2.986.301c0 .08 0 .167-.008.254h-2.978c.024.641.563 1.14 1.22 1.14a1.29 1.29 0 001.093-.57l.523.42c-.404.523-.951.768-1.616.768-1.141 0-1.98-.792-1.98-1.972 0-1.172.839-1.988 1.94-1.988 1.109 0 1.806.753 1.806 1.948zm.881-1.037c0-.198-.008-.562-.032-.808h.705c.016.19.032.475.032.634h.024a1.271 1.271 0 011.441-.705l-.031.689a1.491 1.491 0 00-.341-.04c-.713 0-1.053.578-1.053 1.204v1.972h-.745V3.24z" fill="#fff"/></svg>