<svg width="119" height="50" viewBox="0 0 119 50" fill="none" xmlns="http://www.w3.org/2000/svg"><rect y="10.802" width="119" height="29" rx="2.816" fill="#14324F"/><path d="M36.506 29.802v-8.496h3.312c1.284 0 2.604.588 2.604 2.136 0 .96-.6 1.596-1.476 1.86v.024c1.068.144 1.836.864 1.836 2.004 0 1.848-1.608 2.472-3.216 2.472h-3.06zm1.512-7.248v2.208h1.344c1.008 0 1.548-.42 1.548-1.152 0-.756-.54-1.056-1.68-1.056h-1.212zm0 3.504v2.472h1.356c.78 0 1.896-.156 1.896-1.272 0-.888-.612-1.2-1.836-1.2h-1.416zm11.442-2.016v5.76h-1.368v-.924h-.024c-.252.576-.936 1.092-1.788 1.092-1.5 0-2.124-1.152-2.124-2.328v-3.6h1.44v3.192c0 .684.156 1.536 1.08 1.536.912 0 1.344-.792 1.344-1.56v-3.168h1.44zm3.336 5.76l-2.472-5.76h1.596l1.608 4.188h.024l1.428-4.188h1.5l-2.724 6.996c-.408 1.044-.912 1.644-2.184 1.644-.24 0-.492-.024-.744-.084l.12-1.248c.192.06.384.084.54.084.612 0 .78-.3 1.02-.9l.288-.732zm7.545 0v-5.76h1.368v.924h.024c.252-.576.936-1.092 1.788-1.092 1.5 0 2.124 1.152 2.124 2.328v3.6h-1.44V26.61c0-.684-.156-1.536-1.08-1.536-.912 0-1.344.792-1.344 1.56v3.168h-1.44zm6.648-2.904c0-1.812 1.392-3.024 3.132-3.024 1.74 0 3.132 1.212 3.132 3.024S71.86 29.97 70.12 29.97c-1.74 0-3.132-1.26-3.132-3.072zm1.464 0c0 .9.528 1.872 1.668 1.872s1.668-.972 1.668-1.872c0-.9-.528-1.848-1.668-1.848s-1.668.948-1.668 1.848zm7.384 2.904l-2.004-5.76h1.56l1.2 4.128h.024l1.236-4.128h1.536l1.248 4.128h.024l1.224-4.128h1.5l-1.992 5.76H79.93l-1.308-4.032h-.024l-1.296 4.032h-1.464z" fill="#fff"/></svg>