<svg width="269" height="34" viewBox="0 0 269 34" fill="none" xmlns="http://www.w3.org/2000/svg"><path d="M6.536 11.557H5.531v3.42H1.976V4.357h4.56c2.16 0 4.35.825 4.35 3.57 0 2.625-2.145 3.63-4.35 3.63zm-.255-4.425h-.75v1.71h.75c.54 0 1.08-.255 1.08-.885 0-.675-.54-.825-1.08-.825zm5.47 2.475c0-3.405 2.534-5.55 5.894-5.55 3.36 0 5.91 2.145 5.91 5.55s-2.55 5.67-5.91 5.67c-3.36 0-5.895-2.265-5.895-5.67zm3.794 0c0 1.38.885 2.37 2.1 2.37 1.2 0 2.1-.99 2.1-2.37 0-1.38-.9-2.28-2.1-2.28-1.215 0-2.1.9-2.1 2.28zm16.567-.63l-1.545 6h-3.6l-2.895-10.62h3.78l1.14 5.97h.06l1.23-5.97h3.735l1.335 5.97h.06l1.155-5.97h3.66l-2.955 10.62h-3.6l-1.5-6h-.06zm9.107 6V4.357h7.306v2.97H44.58v.915h3.705v2.775H44.58v.99h4.2v2.97h-7.56zm9.039 0V4.357h4.575c2.1 0 4.29.75 4.29 3.45 0 1.29-.675 2.325-1.86 2.865l2.7 4.305h-4.11l-2.04-3.795h-.105v3.795h-3.45zm3.42-7.845v1.71h.705c.495 0 1.245-.12 1.245-.885 0-.75-.645-.825-1.095-.825h-.855z" fill="#5BEF76"/><path d="M70.574 10.627v4.35h-3.57v-4.35L63 4.357h4.305l1.68 3.12 1.605-3.12h4.2l-4.215 6.27zm3.828-1.02c0-3.405 2.535-5.55 5.895-5.55 3.36 0 5.91 2.145 5.91 5.55s-2.55 5.67-5.91 5.67c-3.36 0-5.895-2.265-5.895-5.67zm3.795 0c0 1.38.885 2.37 2.1 2.37 1.2 0 2.1-.99 2.1-2.37 0-1.38-.9-2.28-2.1-2.28-1.215 0-2.1.9-2.1 2.28zm14.287 5.67c-3.315 0-4.92-1.95-4.92-4.47v-6.45h3.57v6.06c0 1.005.51 1.62 1.41 1.62.9 0 1.41-.615 1.41-1.62v-6.06h3.555v6.45c0 2.52-1.71 4.47-5.025 4.47zm6.86-.3V4.357h4.575c2.1 0 4.29.75 4.29 3.45 0 1.29-.675 2.325-1.86 2.865l2.7 4.305h-4.11l-2.04-3.795h-.105v3.795h-3.45zm3.42-7.845v1.71h.705c.495 0 1.245-.12 1.245-.885 0-.75-.645-.825-1.095-.825h-.855zm15.254 0h-.885v1.305h.96c.495 0 .855-.225.855-.705 0-.405-.375-.6-.93-.6zm.03 3.6h-.915v1.44h1.065c.555 0 .945-.255.945-.735 0-.57-.66-.705-1.095-.705zm2.7-1.32v.045c1.02.24 1.995 1.095 1.995 2.415 0 2.325-2.055 3.105-4.125 3.105h-4.816V4.357h4.366c1.725 0 4.14.36 4.14 2.82 0 1.14-.63 1.875-1.56 2.235zm8.225 5.865c-3.315 0-4.92-1.95-4.92-4.47v-6.45h3.57v6.06c0 1.005.51 1.62 1.41 1.62.9 0 1.41-.615 1.41-1.62v-6.06h3.555v6.45c0 2.52-1.71 4.47-5.025 4.47zm10.341 0c-1.71 0-3.39-.645-4.47-1.605l2.175-2.37c.495.54 1.41 1.035 2.28 1.035.405 0 .795-.12.795-.495 0-.39-.375-.54-1.875-1.035-1.44-.48-2.745-1.245-2.745-3.105 0-2.64 2.37-3.645 4.455-3.645 1.395 0 2.955.57 4.05 1.575l-2.22 2.265c-.48-.6-1.275-.915-1.83-.915-.525 0-.87.135-.87.48 0 .315.315.42 1.05.66 1.53.495 3.585 1.17 3.585 3.36 0 2.565-2.235 3.795-4.38 3.795zm5.778-.3V4.357h3.6v10.62h-3.6zm5.581 0V4.357h3.555l3.03 5.385h.06l-.15-5.385h3.39v10.62h-3.645l-2.94-5.07h-.06l.15 5.07h-3.39zm11.865 0V4.357h7.305v2.97h-3.945v.915h3.705v2.775h-3.705v.99h4.2v2.97h-7.56zm12.518.3c-1.71 0-3.39-.645-4.47-1.605l2.175-2.37c.495.54 1.41 1.035 2.28 1.035.405 0 .795-.12.795-.495 0-.39-.375-.54-1.875-1.035-1.44-.48-2.745-1.245-2.745-3.105 0-2.64 2.37-3.645 4.455-3.645 1.395 0 2.955.57 4.05 1.575l-2.22 2.265c-.48-.6-1.275-.915-1.83-.915-.525 0-.87.135-.87.48 0 .315.315.42 1.05.66 1.53.495 3.585 1.17 3.585 3.36 0 2.565-2.235 3.795-4.38 3.795zm9.258 0c-1.71 0-3.39-.645-4.47-1.605l2.175-2.37c.495.54 1.41 1.035 2.28 1.035.405 0 .795-.12.795-.495 0-.39-.375-.54-1.875-1.035-1.44-.48-2.745-1.245-2.745-3.105 0-2.64 2.37-3.645 4.455-3.645 1.395 0 2.955.57 4.05 1.575l-2.22 2.265c-.48-.6-1.275-.915-1.83-.915-.525 0-.87.135-.87.48 0 .315.315.42 1.05.66 1.53.495 3.585 1.17 3.585 3.36 0 2.565-2.235 3.795-4.38 3.795zm16.402-6.3l-1.545 6h-3.6l-2.895-10.62h3.78l1.14 5.97h.06l1.23-5.97h3.735l1.335 5.97h.06l1.155-5.97h3.66l-2.955 10.62h-3.6l-1.5-6h-.06zm9.107 6V4.357h3.6v10.62h-3.6zm10.876-7.605v7.605h-3.57V7.372h-2.61V4.357h8.79v3.015h-2.61zm10.179 7.605v-4.035h-2.91v4.035h-3.57V4.357h3.555v3.6h2.91v-3.6h3.585v10.62h-3.57z" fill="#fff"/><path d="M12.086 28.217v.06l1.68-.105v2.805h-6.57c-3.36 0-5.7-1.905-5.7-5.43 0-3.255 2.535-5.49 5.895-5.49 3.36 0 5.805 2.22 5.805 5.355 0 1.215-.585 2.355-1.11 2.805zm-6.795-2.61c0 1.38.885 2.37 2.1 2.37 1.2 0 2.1-.99 2.1-2.37 0-1.38-.9-2.28-2.1-2.28-1.215 0-2.1.9-2.1 2.28zm14.42 5.67c-3.316 0-4.92-1.95-4.92-4.47v-6.45h3.57v6.06c0 1.005.51 1.62 1.41 1.62.9 0 1.41-.615 1.41-1.62v-6.06h3.554v6.45c0 2.52-1.71 4.47-5.025 4.47zm6.86-.3v-10.62h3.6v10.62h-3.6zm5.101-5.31c0-3.405 2.565-5.61 5.775-5.61 1.635 0 3.18.57 4.155 1.47l-2.19 2.64c-.39-.525-1.02-.795-1.755-.795-1.185 0-2.145.885-2.145 2.295 0 1.38.99 2.265 2.145 2.265.81 0 1.425-.39 1.755-.855l2.19 2.625c-.945.945-2.385 1.575-4.155 1.575-3.21 0-5.775-2.265-5.775-5.61zm17.27 5.31l-2.836-4.23h-.03v4.23h-3.48v-10.62h3.465v3.915h.03l2.835-3.915h4.2l-3.99 4.86 4.185 5.76h-4.38zm9.31-7.845h-.885v1.305h.96c.495 0 .855-.225.855-.705 0-.405-.375-.6-.93-.6zm.03 3.6h-.915v1.44h1.065c.555 0 .945-.255.945-.735 0-.57-.66-.705-1.095-.705zm2.7-1.32v.045c1.02.24 1.995 1.095 1.995 2.415 0 2.325-2.055 3.105-4.125 3.105h-4.815v-10.62h4.365c1.725 0 4.14.36 4.14 2.82 0 1.14-.63 1.875-1.56 2.235zm2.975.195c0-3.405 2.535-5.55 5.895-5.55 3.36 0 5.91 2.145 5.91 5.55s-2.55 5.67-5.91 5.67c-3.36 0-5.895-2.265-5.895-5.67zm3.795 0c0 1.38.885 2.37 2.1 2.37 1.2 0 2.1-.99 2.1-2.37 0-1.38-.9-2.28-2.1-2.28-1.215 0-2.1.9-2.1 2.28zm9.037 0c0-3.405 2.535-5.55 5.895-5.55 3.36 0 5.91 2.145 5.91 5.55s-2.55 5.67-5.91 5.67c-3.36 0-5.895-2.265-5.895-5.67zm3.795 0c0 1.38.885 2.37 2.1 2.37 1.2 0 2.1-.99 2.1-2.37 0-1.38-.9-2.28-2.1-2.28-1.215 0-2.1.9-2.1 2.28zm15.862 5.37l-2.835-4.23h-.03v4.23h-3.48v-10.62h3.465v3.915h.03l2.835-3.915h4.2l-3.99 4.86 4.185 5.76h-4.38zm8.576.3c-1.71 0-3.39-.645-4.47-1.605l2.175-2.37c.495.54 1.41 1.035 2.28 1.035.405 0 .795-.12.795-.495 0-.39-.375-.54-1.875-1.035-1.44-.48-2.745-1.245-2.745-3.105 0-2.64 2.37-3.645 4.455-3.645 1.395 0 2.955.57 4.05 1.575l-2.22 2.265c-.48-.6-1.275-.915-1.83-.915-.525 0-.87.135-.87.48 0 .315.315.42 1.05.66 1.53.495 3.585 1.17 3.585 3.36 0 2.565-2.235 3.795-4.38 3.795zm9.048-5.67c0-3.405 2.535-5.55 5.895-5.55 3.36 0 5.91 2.145 5.91 5.55s-2.55 5.67-5.91 5.67c-3.36 0-5.895-2.265-5.895-5.67zm3.795 0c0 1.38.885 2.37 2.1 2.37 1.2 0 2.1-.99 2.1-2.37 0-1.38-.9-2.28-2.1-2.28-1.215 0-2.1.9-2.1 2.28zm9.517 5.37v-10.62h3.555l3.03 5.385h.06l-.15-5.385h3.39v10.62h-3.645l-2.94-5.07h-.06l.15 5.07h-3.39zm11.865 0v-10.62h3.6v7.56h3.525v3.06h-7.125zm8.232 0v-10.62h3.6v10.62h-3.6zm5.581 0v-10.62h3.555l3.03 5.385h.06l-.15-5.385h3.39v10.62H159.3l-2.94-5.07h-.06l.15 5.07h-3.39zm11.866 0v-10.62h7.305v2.97h-3.945v.915h3.705v2.775h-3.705v.99h4.2v2.97h-7.56z" fill="#61FE8B"/></svg>